<?xml version="1.0" encoding="utf-8"?>
<!-- Generator: Adobe Illustrator 27.5.0, SVG Export Plug-In . SVG Version: 6.00 Build 0)  -->
<svg version="1.1" xmlns="http://www.w3.org/2000/svg" xmlns:xlink="http://www.w3.org/1999/xlink" x="0px" y="0px"
	 viewBox="0 0 300.7 303.2" style="enable-background:new 0 0 300.7 303.2;" xml:space="preserve">
<style type="text/css">
	.st0{fill:#EF7C7F;}
	.st1{fill:#BD4D4C;}
	.st2{fill:#EC5F60;}
	.st3{opacity:0.96;fill:#AFC5D5;}
	.st4{fill:#36534D;}
	.st5{fill:#AFC5D5;}
	.st6{fill:#3C414B;}
	.st7{fill:#2A5135;}
</style>
<g id="Laag_1">
</g>
<g id="tekst">
	<path class="st0" d="M241,90.4c0,13-2.8,25.3-7.9,36.5c-3.8,8.5-9,16.2-15.2,23c-2.9,3.1-6,6.1-9.2,8.8c-7.3,6-15.5,10.8-24.4,14.2
		c-9.9,3.8-20.6,5.9-31.8,5.9c-25.9,0-49.2-11.2-65.4-28.9c-14.3-15.7-23-36.6-23-59.5C64.1,41.6,103.7,2,152.5,2
		c21.3,0,40.9,7.5,56.2,20.1C228.4,38.3,241,62.9,241,90.4z"/>
	<g>
		<g>
			<path class="st1" d="M182.6,179.3c0,27.5-12.6,52.1-32.3,68.3c-15.3,12.6-34.9,20.1-56.2,20.1c-48.8,0-88.4-39.6-88.4-88.4
				c0-22.9,8.7-43.8,23-59.5C44.9,102,68.3,90.8,94.2,90.8c11.2,0,21.9,2.1,31.8,5.9c8.9,3.4,17.2,8.3,24.4,14.2
				c3.3,2.7,6.4,5.7,9.2,8.8c6.2,6.8,11.3,14.6,15.2,23C179.8,153.9,182.6,166.3,182.6,179.3z"/>
		</g>
		<path class="st2" d="M297.7,179.3c0,48.8-39.6,88.4-88.4,88.4c-21.3,0-40.9-7.5-56.2-20.1c-19.7-16.2-32.3-40.8-32.3-68.3
			c0-13,2.8-25.4,7.9-36.5c3.8-8.5,9-16.2,15.2-23c2.9-3.1,6-6.1,9.2-8.8c7.3-6,15.5-10.8,24.4-14.2c9.9-3.8,20.6-5.9,31.8-5.9
			c25.9,0,49.2,11.2,65.4,28.9C289,135.5,297.7,156.3,297.7,179.3z"/>
	</g>
	<path class="st3" d="M115.6,229.5c0.2-11.7,2.6-22.8,6.8-33c3.2,16.3,10.8,31,21.7,42.8c2.5,2.7,5.2,5.3,8,7.7
		c15.1,12.8,34.6,20.6,55.9,20.9c2.9,0,5.8-0.1,8.6-0.3l-37.8,18.9l-28.7,14.4c-1.1-0.9-2.2-1.7-3.3-2.6c-2.1-1.7-4.1-3.6-5.9-5.5
		c-8.3-8.5-15-18.6-19.4-29.9C117.6,252.5,115.5,241.2,115.6,229.5z"/>
	<path class="st3" d="M242.2,147.5c-10.2,5.6-21.1,9-32,10.3c12.6-10.8,21.6-24.7,26.5-39.9c1.1-3.5,2.1-7.1,2.7-10.8
		c3.7-19.4,0.9-40.2-9.4-58.9c-1.4-2.6-2.9-5-4.5-7.4l35.1,23.5l26.7,17.9c-0.2,1.4-0.4,2.8-0.7,4.2c-0.5,2.7-1.1,5.3-1.9,7.9
		c-3.3,11.4-8.8,22.2-16.4,31.6C261.3,134.5,252.6,141.9,242.2,147.5z"/>
	<g>
		<g>
			<g>
				<path class="st4" d="M241,96.7c-0.8,10.7-3.4,20.9-7.6,30.2c-3.8,8.5-9,16.2-15.2,23c-2.9,3.1-6,6.1-9.2,8.8
					c-7.3,6-15.5,10.8-24.4,14.2c-0.7,0.3-1.4,0.5-2,0.8c0.1,1.8,0.2,3.7,0.2,5.5c0,26.9-12,50.9-30.9,67.2
					c-18.9-16.2-30.9-40.3-30.9-67.2c0-2.1,0.1-4.2,0.2-6.2c-13-5-24.5-13-33.7-23.1c-13.1-14.4-21.6-33.3-22.8-54
					c9.3-3.3,19.3-5.1,29.7-5.1c11.2,0,21.9,2.1,31.8,5.9c8.9,3.4,17.2,8.3,24.4,14.2c0.5,0.4,0.9,0.8,1.4,1.2
					c0.5-0.4,0.9-0.8,1.4-1.2c7.3-6,15.5-10.8,24.4-14.2c9.9-3.8,20.6-5.9,31.8-5.9C220.4,90.8,231.1,92.9,241,96.7z"/>
			</g>
		</g>
	</g>
	<circle class="st5" cx="150.8" cy="151.2" r="35.1"/>
	<g>
		<path class="st6" d="M114.5,71.3l2.2-6.5h1.9l-3.4,9.1h-1.4l-3.4-9.1h1.9L114.5,71.3z"/>
		<path class="st6" d="M123.9,74.1c-1.3,0-2.3-0.4-3-1.1s-1-1.7-1-3v-1c0-1.4,0.3-2.4,1-3.2s1.6-1.1,2.8-1.1c1.1,0,2,0.4,2.7,1.3
			s0.9,2,0.9,3.6v0.6h-6.2v-1.4h4.4c-0.1-0.7-0.2-1.3-0.6-1.7s-0.8-0.6-1.3-0.6c-0.7,0-1.2,0.2-1.6,0.7s-0.6,1.1-0.6,1.9V70
			c0,0.8,0.2,1.3,0.6,1.7s1,0.6,1.7,0.6c0.4,0,0.7-0.1,1.1-0.2s0.7-0.4,1-0.6l1.2,1.2c-0.5,0.4-1,0.8-1.5,1S124.5,74.1,123.9,74.1z"
			/>
		<path class="st6" d="M129.8,73.9v-9.1h1.8v9.1H129.8z M134.9,67c-0.2-0.2-0.4-0.3-0.6-0.4s-0.5-0.1-0.8-0.1c-0.6,0-1,0.2-1.3,0.5
			c-0.3,0.3-0.5,0.7-0.5,1.3l-0.2-1.8c0.3-0.5,0.6-1,1.1-1.3c0.4-0.3,0.9-0.5,1.5-0.5c0.4,0,0.8,0.1,1.1,0.2
			c0.3,0.1,0.6,0.3,0.9,0.5L134.9,67z"/>
		<path class="st6" d="M137.5,73.9V61.2h1.8v12.8H137.5z M138.2,72.6l0.1-2.1l4.7-5.7h2.1L138.2,72.6z M143.6,73.9l-3.2-5.3l1.2-1.2
			l4,6.5H143.6z"/>
		<path class="st6" d="M150.8,74.1c-1.3,0-2.3-0.4-3-1.1s-1-1.7-1-3v-1c0-1.4,0.3-2.4,1-3.2s1.6-1.1,2.8-1.1c1.1,0,2,0.4,2.7,1.3
			s0.9,2,0.9,3.6v0.6h-6.2v-1.4h4.4c-0.1-0.7-0.2-1.3-0.6-1.7s-0.8-0.6-1.3-0.6c-0.7,0-1.2,0.2-1.6,0.7s-0.6,1.1-0.6,1.9V70
			c0,0.8,0.2,1.3,0.6,1.7s1,0.6,1.7,0.6c0.4,0,0.7-0.1,1.1-0.2s0.7-0.4,1-0.6l1.2,1.2c-0.5,0.4-1,0.8-1.5,1S151.3,74.1,150.8,74.1z"
			/>
		<path class="st6" d="M156.7,73.9v-9.1h1.8v9.1H156.7z M162.2,73.9v-5.5c0-0.6-0.2-1.1-0.5-1.5c-0.3-0.4-0.8-0.5-1.4-0.5
			c-0.6,0-1,0.2-1.4,0.5s-0.5,0.7-0.5,1.3l-0.2-1.8c0.3-0.6,0.6-1,1.1-1.3s1-0.4,1.5-0.4c1,0,1.8,0.3,2.3,1c0.5,0.6,0.8,1.6,0.8,2.7
			v5.5H162.2z"/>
		<path class="st6" d="M166.7,73.9v-9.1h1.8v9.1H166.7z M172.3,73.9v-5.5c0-0.6-0.2-1.1-0.5-1.5c-0.3-0.4-0.8-0.5-1.4-0.5
			c-0.6,0-1,0.2-1.4,0.5s-0.5,0.7-0.5,1.3l-0.2-1.8c0.3-0.6,0.6-1,1.1-1.3s1-0.4,1.5-0.4c1,0,1.8,0.3,2.3,1c0.5,0.6,0.8,1.6,0.8,2.7
			v5.5H172.3z"/>
		<path class="st6" d="M180.5,74.1c-1.3,0-2.3-0.4-3-1.1s-1-1.7-1-3v-1c0-1.4,0.3-2.4,1-3.2s1.6-1.1,2.8-1.1c1.1,0,2,0.4,2.7,1.3
			s0.9,2,0.9,3.6v0.6h-6.2v-1.4h4.4c-0.1-0.7-0.2-1.3-0.6-1.7s-0.8-0.6-1.3-0.6c-0.7,0-1.2,0.2-1.6,0.7s-0.6,1.1-0.6,1.9V70
			c0,0.8,0.2,1.3,0.6,1.7s1,0.6,1.7,0.6c0.4,0,0.7-0.1,1.1-0.2s0.7-0.4,1-0.6l1.2,1.2c-0.5,0.4-1,0.8-1.5,1S181.1,74.1,180.5,74.1z"
			/>
		<path class="st6" d="M186.5,73.9v-9.1h1.8v9.1H186.5z M192,73.9v-5.5c0-0.6-0.2-1.1-0.5-1.5c-0.3-0.4-0.8-0.5-1.4-0.5
			c-0.6,0-1,0.2-1.4,0.5s-0.5,0.7-0.5,1.3l-0.2-1.8c0.3-0.6,0.6-1,1.1-1.3s1-0.4,1.5-0.4c1,0,1.8,0.3,2.3,1c0.5,0.6,0.8,1.6,0.8,2.7
			v5.5H192z"/>
	</g>
	<g>
		<path class="st6" d="M193.3,183.7l2.2-6.5h1.9l-3.4,9.1h-1.4l-3.4-9.1h1.9L193.3,183.7z"/>
		<path class="st6" d="M202.7,186.5c-1.3,0-2.3-0.4-3-1.1s-1-1.7-1-3v-1c0-1.4,0.3-2.4,1-3.2s1.6-1.1,2.8-1.1c1.1,0,2,0.4,2.7,1.3
			s0.9,2,0.9,3.6v0.6H200V181h4.4c-0.1-0.7-0.2-1.3-0.6-1.7s-0.8-0.6-1.3-0.6c-0.7,0-1.2,0.2-1.6,0.7s-0.6,1.1-0.6,1.9v1.2
			c0,0.8,0.2,1.3,0.6,1.7s1,0.6,1.7,0.6c0.4,0,0.7-0.1,1.1-0.2s0.7-0.4,1-0.6l1.2,1.2c-0.5,0.4-1,0.8-1.5,1
			C203.8,186.3,203.3,186.5,202.7,186.5z"/>
		<path class="st6" d="M208.6,186.3v-9.1h1.8v9.1H208.6z M213.6,179.4c-0.2-0.2-0.4-0.3-0.6-0.4s-0.5-0.1-0.8-0.1
			c-0.6,0-1,0.2-1.3,0.5c-0.3,0.3-0.5,0.7-0.5,1.3l-0.2-1.8c0.3-0.5,0.6-1,1.1-1.3c0.4-0.3,0.9-0.5,1.5-0.5c0.4,0,0.8,0.1,1.1,0.2
			c0.3,0.1,0.6,0.3,0.9,0.5L213.6,179.4z"/>
		<path class="st6" d="M216.3,186.3v-12.8h1.8v12.8H216.3z M220.4,186.5c-0.6,0-1.1-0.1-1.5-0.4c-0.4-0.3-0.7-0.7-0.9-1.2l0.1-1.9
			c0,0.4,0.1,0.7,0.2,1c0.1,0.3,0.3,0.5,0.6,0.6c0.3,0.1,0.6,0.2,1,0.2c0.6,0,1.1-0.2,1.4-0.5c0.3-0.4,0.5-0.9,0.5-1.5v-2
			c0-0.7-0.2-1.2-0.5-1.6c-0.3-0.4-0.8-0.6-1.4-0.6c-0.4,0-0.7,0.1-1,0.2c-0.3,0.1-0.5,0.3-0.6,0.6c-0.1,0.3-0.2,0.6-0.2,1l-0.2-1.8
			c0.3-0.5,0.6-0.9,1.1-1.2c0.4-0.3,0.9-0.4,1.5-0.4c1,0,1.7,0.3,2.3,1s0.8,1.6,0.8,2.7v2c0,1.2-0.3,2.1-0.8,2.7
			S221.4,186.5,220.4,186.5z"/>
		<path class="st6" d="M229.8,186.5c-1.3,0-2.3-0.4-3-1.1s-1-1.7-1-3v-1c0-1.4,0.3-2.4,1-3.2s1.6-1.1,2.8-1.1c1.1,0,2,0.4,2.7,1.3
			s0.9,2,0.9,3.6v0.6h-6.2V181h4.4c-0.1-0.7-0.2-1.3-0.6-1.7s-0.8-0.6-1.3-0.6c-0.7,0-1.2,0.2-1.6,0.7s-0.6,1.1-0.6,1.9v1.2
			c0,0.8,0.2,1.3,0.6,1.7s1,0.6,1.7,0.6c0.4,0,0.7-0.1,1.1-0.2s0.7-0.4,1-0.6l1.2,1.2c-0.5,0.4-1,0.8-1.5,1
			C231,186.3,230.4,186.5,229.8,186.5z"/>
		<path class="st6" d="M239.5,186.5c-1.3,0-2.3-0.4-3-1.1s-1-1.7-1-3v-1c0-1.4,0.3-2.4,1-3.2s1.6-1.1,2.8-1.1c1.1,0,2,0.4,2.7,1.3
			s0.9,2,0.9,3.6v0.6h-6.2V181h4.4c-0.1-0.7-0.2-1.3-0.6-1.7s-0.8-0.6-1.3-0.6c-0.7,0-1.2,0.2-1.6,0.7s-0.6,1.1-0.6,1.9v1.2
			c0,0.8,0.2,1.3,0.6,1.7s1,0.6,1.7,0.6c0.4,0,0.7-0.1,1.1-0.2s0.7-0.4,1-0.6l1.2,1.2c-0.5,0.4-1,0.8-1.5,1
			C240.6,186.3,240.1,186.5,239.5,186.5z"/>
		<path class="st6" d="M247.2,173.6V184c0,0.2,0,0.4,0.1,0.5c0.1,0.1,0.2,0.2,0.4,0.2h0.8v1.7h-1.1c-0.7,0-1.2-0.2-1.6-0.6
			s-0.6-1-0.6-1.8v-10.4H247.2z"/>
		<path class="st6" d="M253.5,186.5c-1,0-1.8-0.3-2.3-1c-0.5-0.6-0.8-1.6-0.8-2.7v-2c0-1.2,0.3-2.1,0.8-2.7c0.5-0.6,1.3-1,2.3-1
			c0.5,0,1,0.1,1.5,0.4c0.4,0.3,0.8,0.7,1.1,1.2l-0.2,1.9c0-0.4-0.1-0.7-0.2-1s-0.3-0.5-0.6-0.6c-0.3-0.1-0.6-0.2-1-0.2
			c-0.6,0-1.1,0.2-1.4,0.6c-0.3,0.4-0.5,0.9-0.5,1.6v2c0,0.7,0.2,1.2,0.5,1.5c0.3,0.4,0.8,0.5,1.4,0.5c0.4,0,0.7-0.1,1-0.2
			c0.3-0.1,0.5-0.4,0.6-0.6s0.2-0.6,0.2-1l0.1,1.9c-0.2,0.4-0.4,0.8-0.8,1.1C254.7,186.3,254.1,186.5,253.5,186.5z M255.8,186.3
			v-12.8h1.8v12.8H255.8z"/>
		<path class="st6" d="M264,186.5c-1.3,0-2.3-0.4-3-1.1s-1-1.7-1-3v-1c0-1.4,0.3-2.4,1-3.2s1.6-1.1,2.8-1.1c1.1,0,2,0.4,2.7,1.3
			s0.9,2,0.9,3.6v0.6h-6.2V181h4.4c-0.1-0.7-0.2-1.3-0.6-1.7s-0.8-0.6-1.3-0.6c-0.7,0-1.2,0.2-1.6,0.7s-0.6,1.1-0.6,1.9v1.2
			c0,0.8,0.2,1.3,0.6,1.7s1,0.6,1.7,0.6c0.4,0,0.7-0.1,1.1-0.2s0.7-0.4,1-0.6l1.2,1.2c-0.5,0.4-1,0.8-1.5,1
			C265.2,186.3,264.6,186.5,264,186.5z"/>
		<path class="st6" d="M270,186.3v-9.1h1.8v9.1H270z M275.5,186.3v-5.5c0-0.6-0.2-1.1-0.5-1.5c-0.3-0.4-0.8-0.5-1.4-0.5
			c-0.6,0-1,0.2-1.4,0.5s-0.5,0.7-0.5,1.3l-0.2-1.8c0.3-0.6,0.6-1,1.1-1.3s1-0.4,1.5-0.4c1,0,1.8,0.3,2.3,1c0.5,0.6,0.8,1.6,0.8,2.7
			v5.5H275.5z"/>
	</g>
	<g>
		<path class="st6" d="M29.1,183.7l2.2-6.5h1.9l-3.4,9.1h-1.4l-3.4-9.1h1.9L29.1,183.7z"/>
		<path class="st6" d="M38.6,186.5c-1.3,0-2.3-0.4-3-1.1s-1-1.7-1-3v-1c0-1.4,0.3-2.4,1-3.2s1.6-1.1,2.8-1.1c1.1,0,2,0.4,2.7,1.3
			s0.9,2,0.9,3.6v0.6h-6.2V181h4.4c-0.1-0.7-0.2-1.3-0.6-1.7s-0.8-0.6-1.3-0.6c-0.7,0-1.2,0.2-1.6,0.7s-0.6,1.1-0.6,1.9v1.2
			c0,0.8,0.2,1.3,0.6,1.7s1,0.6,1.7,0.6c0.4,0,0.7-0.1,1.1-0.2s0.7-0.4,1-0.6l1.2,1.2c-0.5,0.4-1,0.8-1.5,1
			C39.7,186.3,39.1,186.5,38.6,186.5z"/>
		<path class="st6" d="M44.5,186.3v-9.1h1.8v9.1H44.5z M49.5,179.4c-0.2-0.2-0.4-0.3-0.6-0.4s-0.5-0.1-0.8-0.1c-0.6,0-1,0.2-1.3,0.5
			c-0.3,0.3-0.5,0.7-0.5,1.3l-0.2-1.8c0.3-0.5,0.6-1,1.1-1.3s0.9-0.5,1.5-0.5c0.4,0,0.8,0.1,1.1,0.2s0.6,0.3,0.9,0.5L49.5,179.4z"/>
		<path class="st6" d="M54.9,186.5c-1,0-1.8-0.3-2.3-1s-0.8-1.6-0.8-2.7v-2c0-1.2,0.3-2.1,0.8-2.7c0.5-0.6,1.3-1,2.3-1
			c0.5,0,1,0.1,1.5,0.4s0.8,0.7,1.1,1.2l-0.2,1.9c0-0.4-0.1-0.7-0.2-1s-0.3-0.5-0.6-0.6c-0.3-0.1-0.6-0.2-1-0.2
			c-0.6,0-1.1,0.2-1.4,0.6s-0.5,0.9-0.5,1.6v2c0,0.7,0.2,1.2,0.5,1.5c0.3,0.4,0.8,0.5,1.4,0.5c0.4,0,0.7-0.1,1-0.2
			c0.3-0.1,0.5-0.4,0.6-0.6s0.2-0.6,0.2-1l0.1,1.9c-0.2,0.4-0.4,0.8-0.8,1.1C56.1,186.3,55.5,186.5,54.9,186.5z M57.2,186.3v-12.8
			H59v12.8H57.2z"/>
		<path class="st6" d="M61.7,175.3v-1.8h1.8v1.8H61.7z M61.7,186.3v-9.1h1.8v9.1H61.7z"/>
		<path class="st6" d="M69.9,186.5c-1.3,0-2.3-0.4-3-1.1s-1-1.7-1-3v-1c0-1.4,0.3-2.4,1-3.2s1.6-1.1,2.8-1.1c1.1,0,2,0.4,2.7,1.3
			s0.9,2,0.9,3.6v0.6h-6.2V181h4.4c-0.1-0.7-0.2-1.3-0.6-1.7s-0.8-0.6-1.3-0.6c-0.7,0-1.2,0.2-1.6,0.7s-0.6,1.1-0.6,1.9v1.2
			c0,0.8,0.2,1.3,0.6,1.7s1,0.6,1.7,0.6c0.4,0,0.7-0.1,1.1-0.2s0.7-0.4,1-0.6l1.2,1.2c-0.5,0.4-1,0.8-1.5,1
			C71.1,186.3,70.5,186.5,69.9,186.5z"/>
		<path class="st6" d="M75.9,190v-12.8h1.8V190H75.9z M80,186.5c-0.6,0-1.1-0.1-1.5-0.4c-0.4-0.3-0.7-0.7-0.9-1.2l0.1-1.9
			c0,0.4,0.1,0.7,0.2,1s0.3,0.5,0.6,0.6s0.6,0.2,1,0.2c0.6,0,1.1-0.2,1.4-0.5c0.3-0.4,0.5-0.9,0.5-1.5v-2c0-0.7-0.2-1.2-0.5-1.6
			s-0.8-0.6-1.4-0.6c-0.4,0-0.7,0.1-1,0.2s-0.5,0.3-0.6,0.6s-0.2,0.6-0.2,1l-0.2-1.8c0.3-0.5,0.6-0.9,1.1-1.2
			c0.4-0.3,0.9-0.4,1.5-0.4c1,0,1.7,0.3,2.3,1s0.8,1.6,0.8,2.7v2c0,1.2-0.3,2.1-0.8,2.7S81,186.5,80,186.5z"/>
		<path class="st6" d="M89.4,186.5c-1.3,0-2.3-0.4-3-1.1s-1-1.7-1-3v-1c0-1.4,0.3-2.4,1-3.2s1.6-1.1,2.8-1.1c1.1,0,2,0.4,2.7,1.3
			s0.9,2,0.9,3.6v0.6h-6.2V181h4.4c-0.1-0.7-0.2-1.3-0.6-1.7s-0.8-0.6-1.3-0.6c-0.7,0-1.2,0.2-1.6,0.7s-0.6,1.1-0.6,1.9v1.2
			c0,0.8,0.2,1.3,0.6,1.7s1,0.6,1.7,0.6c0.4,0,0.7-0.1,1.1-0.2s0.7-0.4,1-0.6l1.2,1.2c-0.5,0.4-1,0.8-1.5,1
			C90.5,186.3,90,186.5,89.4,186.5z"/>
		<path class="st6" d="M95.3,186.3v-9.1h1.8v9.1H95.3z M100.8,186.3v-5.5c0-0.6-0.2-1.1-0.5-1.5s-0.8-0.5-1.4-0.5
			c-0.6,0-1,0.2-1.4,0.5s-0.5,0.7-0.5,1.3l-0.2-1.8c0.3-0.6,0.6-1,1.1-1.3s1-0.4,1.5-0.4c1,0,1.8,0.3,2.3,1s0.8,1.6,0.8,2.7v5.5
			H100.8z"/>
	</g>
	<g>
		<path class="st5" d="M69.3,105.5c-0.7-0.4-1-0.9-1.2-1.5c-0.1-0.6,0-1.2,0.4-1.9l0.5-0.8c0.4-0.6,0.9-1,1.5-1.2
			c0.6-0.1,1.2,0,1.8,0.4c0.4,0.2,0.7,0.5,0.9,0.8c0.2,0.3,0.3,0.6,0.4,1l-1,0.2c0-0.2-0.1-0.4-0.2-0.6c-0.1-0.2-0.3-0.4-0.5-0.5
			c-0.4-0.2-0.7-0.3-1-0.2c-0.3,0.1-0.6,0.3-0.8,0.7l-0.5,0.8c-0.2,0.4-0.3,0.7-0.2,1.1c0.1,0.3,0.3,0.6,0.6,0.8
			c0.2,0.1,0.4,0.2,0.6,0.2c0.2,0,0.5,0,0.7-0.1l0.3,1.1c-0.3,0.1-0.7,0.2-1.1,0.1C70.1,105.9,69.7,105.7,69.3,105.5z"/>
		<path class="st5" d="M73.9,108.3c-0.6-0.4-1-0.9-1.1-1.4c-0.1-0.6,0-1.2,0.4-1.8l0.5-0.8c0.4-0.6,0.9-1,1.4-1.2
			c0.6-0.1,1.2,0,1.8,0.4s1,0.9,1.1,1.4c0.1,0.6,0,1.2-0.4,1.8l-0.5,0.8c-0.4,0.7-0.9,1.1-1.4,1.2C75.1,108.8,74.5,108.7,73.9,108.3
			z M74.5,107.4c0.3,0.2,0.6,0.3,0.9,0.2c0.3-0.1,0.6-0.3,0.8-0.7l0.5-0.8c0.2-0.4,0.3-0.7,0.3-1c-0.1-0.3-0.2-0.6-0.6-0.8
			c-0.3-0.2-0.6-0.3-0.9-0.2s-0.6,0.3-0.8,0.7l-0.5,0.8c-0.2,0.4-0.3,0.7-0.3,1S74.1,107.2,74.5,107.4z"/>
		<path class="st5" d="M77.2,110.3l2.9-4.7l0.9,0.6l-2.9,4.7L77.2,110.3z M80.1,112l1.8-2.9c0.2-0.3,0.3-0.6,0.2-0.9
			c-0.1-0.3-0.2-0.5-0.5-0.7c-0.3-0.2-0.6-0.3-0.9-0.2c-0.3,0.1-0.5,0.2-0.7,0.5l0.5-1c0.3-0.2,0.7-0.3,1-0.3c0.3,0,0.6,0.1,0.9,0.2
			c0.5,0.3,0.8,0.7,0.9,1.2s-0.1,1.1-0.5,1.7l-1.8,2.9L80.1,112z M82.9,113.7l1.8-2.9c0.2-0.3,0.3-0.6,0.2-0.9
			c-0.1-0.3-0.2-0.5-0.6-0.7c-0.3-0.2-0.6-0.2-0.8-0.1c-0.3,0.1-0.5,0.3-0.7,0.6l0.4-1c0.3-0.2,0.7-0.3,1-0.4c0.3,0,0.7,0.1,1,0.2
			c0.5,0.3,0.8,0.7,0.9,1.2c0.1,0.5-0.1,1.1-0.5,1.7l-1.8,2.9L82.9,113.7z"/>
		<path class="st5" d="M84.1,117.1l4.1-6.7l0.9,0.6l-4.1,6.7L84.1,117.1z M87.4,116.6c-0.3-0.2-0.5-0.4-0.6-0.7
			c-0.1-0.3-0.2-0.6-0.1-0.9l0.7-1c-0.1,0.2-0.2,0.4-0.2,0.6s0,0.4,0.1,0.5c0.1,0.2,0.2,0.3,0.4,0.4c0.3,0.2,0.6,0.2,0.9,0.2
			c0.3-0.1,0.5-0.3,0.7-0.6l0.6-1c0.2-0.3,0.3-0.7,0.2-1c-0.1-0.3-0.2-0.5-0.5-0.7c-0.2-0.1-0.4-0.2-0.6-0.2c-0.2,0-0.4,0-0.5,0.1
			s-0.3,0.2-0.4,0.4l0.5-1c0.3-0.2,0.6-0.3,1-0.3c0.3,0,0.6,0.1,0.9,0.2c0.5,0.3,0.8,0.7,0.9,1.2s-0.1,1.1-0.5,1.7l-0.6,1
			c-0.4,0.6-0.8,1-1.3,1.1C88.4,117,87.9,116.9,87.4,116.6z"/>
		<path class="st5" d="M95.4,112.3l-3.3,5.4c-0.1,0.1-0.1,0.2-0.1,0.3c0,0.1,0.1,0.2,0.2,0.2l0.4,0.3l-0.5,0.9l-0.5-0.3
			c-0.4-0.2-0.6-0.5-0.6-0.8s0-0.7,0.3-1.1l3.3-5.4L95.4,112.3z"/>
		<path class="st5" d="M95,121.3c-0.7-0.4-1.1-0.9-1.2-1.5c-0.1-0.6,0-1.2,0.4-1.9l0.3-0.5c0.4-0.7,0.9-1.1,1.5-1.3
			c0.6-0.2,1.2-0.1,1.8,0.3c0.6,0.4,0.9,0.9,1,1.5s-0.2,1.4-0.6,2.2l-0.2,0.3l-3.2-2l0.5-0.8l2.3,1.4c0.2-0.4,0.3-0.8,0.3-1.1
			c0-0.3-0.2-0.6-0.5-0.8c-0.4-0.2-0.7-0.3-1-0.2c-0.3,0.1-0.6,0.4-0.9,0.8l-0.4,0.6c-0.2,0.4-0.3,0.8-0.2,1.1
			c0.1,0.3,0.3,0.6,0.7,0.9c0.2,0.1,0.4,0.2,0.6,0.2c0.2,0,0.5,0,0.7,0l0.2,1c-0.4,0.1-0.7,0.1-1.1,0S95.3,121.4,95,121.3z"/>
		<path class="st5" d="M97.5,122.7l3.4-1.5l-0.1,1.1l-2.3,1L97.5,122.7z M100.7,124.7l-0.1-3l-0.2-3.7l1,0.6l0.1,3l0.2,3.7
			L100.7,124.7z M101.4,122.1l0.1-1.1l2.1-1l1,0.6L101.4,122.1z"/>
		<path class="st5" d="M102.8,126l2.9-4.7l0.9,0.6l-2.9,4.7L102.8,126z M106.3,120.3l0.6-0.9l0.9,0.6l-0.6,0.9L106.3,120.3z"/>
		<path class="st5" d="M106.4,128.2c-0.4-0.2-0.6-0.5-0.6-0.8s0.1-0.7,0.3-1.1l3-4.9l0.9,0.6l-3,4.9c-0.1,0.1-0.1,0.2-0.1,0.3
			c0,0.1,0.1,0.2,0.1,0.2l0.4,0.3l-0.5,0.9L106.4,128.2z M107.2,123.3l0.5-0.8l2.1,1.3l-0.5,0.8L107.2,123.3z"/>
		<path class="st5" d="M110.1,130.6c-0.7-0.4-1.1-0.9-1.2-1.5c-0.1-0.6,0-1.2,0.4-1.9l0.3-0.5c0.4-0.7,0.9-1.1,1.5-1.3
			c0.6-0.2,1.2-0.1,1.8,0.3c0.6,0.4,0.9,0.9,1,1.5c0.1,0.6-0.2,1.4-0.6,2.2l-0.2,0.3l-3.2-2l0.5-0.8l2.3,1.4
			c0.2-0.4,0.3-0.8,0.3-1.1c0-0.3-0.2-0.6-0.5-0.8c-0.4-0.2-0.7-0.3-1-0.2c-0.3,0.1-0.6,0.4-0.9,0.8l-0.4,0.6
			c-0.2,0.4-0.3,0.8-0.2,1.1c0.1,0.3,0.3,0.6,0.7,0.9c0.2,0.1,0.4,0.2,0.6,0.2c0.2,0,0.5,0,0.7,0l0.2,1c-0.4,0.1-0.7,0.1-1.1,0
			S110.4,130.8,110.1,130.6z"/>
		<path class="st5" d="M113.2,132.4l2.9-4.7l0.9,0.6l-2.9,4.7L113.2,132.4z M116.8,126.7l0.6-0.9l0.9,0.6l-0.6,0.9L116.8,126.7z"/>
		<path class="st5" d="M116.8,134.6c-0.4-0.2-0.6-0.5-0.6-0.8c0-0.3,0.1-0.7,0.3-1.1l3-4.9l0.9,0.6l-3,4.9c-0.1,0.1-0.1,0.2-0.1,0.3
			c0,0.1,0.1,0.2,0.1,0.2l0.4,0.3l-0.5,0.9L116.8,134.6z M117.6,129.7l0.5-0.8l2.1,1.3l-0.5,0.8L117.6,129.7z"/>
	</g>
	<g>
		<path class="st5" d="M149.4,227.6c-0.1,0.1-0.2,0.2-0.3,0.4c-0.1,0.1-0.1,0.3-0.1,0.5c0,0.3,0.1,0.6,0.3,0.8
			c0.2,0.2,0.5,0.3,0.8,0.3l-1.1,0.1c-0.3-0.2-0.6-0.4-0.8-0.7c-0.2-0.3-0.3-0.6-0.3-0.9c0-0.3,0-0.5,0.1-0.7
			c0.1-0.2,0.2-0.4,0.3-0.5L149.4,227.6z M153.7,230.7h-5.6v-1.1h5.6V230.7z"/>
		<path class="st5" d="M153.8,223.8c0,0.8-0.2,1.4-0.6,1.8c-0.4,0.4-1,0.6-1.8,0.6h-0.6c-0.8,0-1.5-0.2-1.9-0.6
			c-0.5-0.4-0.7-1-0.7-1.7c0-0.7,0.3-1.2,0.8-1.6s1.2-0.6,2.2-0.6h0.4v3.8h-0.9v-2.7c-0.5,0-0.8,0.1-1.1,0.4
			c-0.3,0.2-0.4,0.5-0.4,0.8c0,0.4,0.1,0.7,0.4,1s0.7,0.3,1.2,0.3h0.7c0.5,0,0.8-0.1,1.1-0.4s0.4-0.6,0.4-1c0-0.2,0-0.4-0.1-0.7
			s-0.2-0.4-0.4-0.6l0.7-0.7c0.3,0.3,0.5,0.6,0.6,0.9C153.7,223.1,153.8,223.5,153.8,223.8z"/>
		<path class="st5" d="M153.7,220.1h-6.3c-0.5,0-0.9-0.1-1.1-0.3c-0.2-0.2-0.4-0.6-0.4-1.1v-0.8h1v0.8c0,0.1,0,0.2,0.1,0.2
			c0.1,0,0.2,0.1,0.3,0.1h6.3V220.1z M149.1,220.7h-0.9v-2.8h0.9V220.7z"/>
		<path class="st5" d="M145.9,215.6h6.4c0.1,0,0.2,0,0.3-0.1c0.1-0.1,0.1-0.1,0.1-0.2v-0.5h1v0.6c0,0.4-0.1,0.7-0.4,1
			c-0.3,0.2-0.6,0.3-1.1,0.3h-6.4V215.6z"/>
		<path class="st5" d="M153.8,211.3c0,0.8-0.2,1.4-0.6,1.8c-0.4,0.4-1,0.6-1.8,0.6h-0.6c-0.8,0-1.5-0.2-1.9-0.6
			c-0.5-0.4-0.7-1-0.7-1.7c0-0.7,0.3-1.2,0.8-1.6s1.2-0.6,2.2-0.6h0.4v3.8h-0.9v-2.7c-0.5,0-0.8,0.1-1.1,0.4
			c-0.3,0.2-0.4,0.5-0.4,0.8c0,0.4,0.1,0.7,0.4,1s0.7,0.3,1.2,0.3h0.7c0.5,0,0.8-0.1,1.1-0.4s0.4-0.6,0.4-1c0-0.2,0-0.4-0.1-0.7
			s-0.2-0.4-0.4-0.6l0.7-0.7c0.3,0.3,0.5,0.6,0.6,0.9C153.7,210.6,153.8,210.9,153.8,211.3z"/>
		<path class="st5" d="M153.8,205.4c0,0.8-0.2,1.4-0.6,1.8c-0.4,0.4-1,0.6-1.8,0.6h-0.9c-0.8,0-1.4-0.2-1.8-0.6
			c-0.4-0.4-0.6-1-0.6-1.8c0-0.4,0.1-0.8,0.2-1.2c0.2-0.4,0.4-0.6,0.7-0.8l0.7,0.8c-0.2,0.2-0.3,0.3-0.4,0.5s-0.1,0.4-0.1,0.7
			c0,0.4,0.1,0.8,0.4,1c0.2,0.2,0.6,0.3,1,0.3h0.9c0.4,0,0.8-0.1,1-0.3c0.2-0.2,0.4-0.6,0.4-1c0-0.2-0.1-0.5-0.2-0.7
			s-0.3-0.4-0.4-0.5l0.8-0.8c0.3,0.2,0.5,0.5,0.6,0.8C153.7,204.6,153.8,205,153.8,205.4z"/>
		<path class="st5" d="M153.7,200.7c0,0.5-0.1,0.8-0.4,1c-0.3,0.2-0.6,0.3-1.1,0.3h-5.7v-1.1h5.8c0.1,0,0.2,0,0.3-0.1
			s0.1-0.1,0.1-0.2v-0.5h1V200.7z M149.1,202.6h-1v-2.5h1V202.6z"/>
		<path class="st5" d="M147,198.6h-1.1v-1.1h1.1V198.6z M153.7,198.6h-5.6v-1.1h5.6V198.6z"/>
		<path class="st5" d="M153.8,193.5c0,0.8-0.2,1.4-0.6,1.8c-0.4,0.4-1,0.6-1.8,0.6h-0.6c-0.8,0-1.5-0.2-1.9-0.6
			c-0.5-0.4-0.7-1-0.7-1.7c0-0.7,0.3-1.2,0.8-1.6s1.2-0.6,2.2-0.6h0.4v3.8h-0.9v-2.7c-0.5,0-0.8,0.1-1.1,0.4
			c-0.3,0.2-0.4,0.5-0.4,0.8c0,0.4,0.1,0.7,0.4,1s0.7,0.3,1.2,0.3h0.7c0.5,0,0.8-0.1,1.1-0.4s0.4-0.6,0.4-1c0-0.2,0-0.4-0.1-0.7
			s-0.2-0.4-0.4-0.6l0.7-0.7c0.3,0.3,0.5,0.6,0.6,0.9C153.7,192.9,153.8,193.2,153.8,193.5z"/>
	</g>
	<g>
		<path class="st6" d="M255.8,104.2c-0.3-0.2-0.5-0.5-0.7-0.8c-0.2-0.3-0.3-0.6-0.4-1s-0.2-0.7-0.3-1.1c-0.1-0.4-0.2-0.7-0.3-1
			c0.1-0.1,0.2-0.2,0.3-0.2c0.1,0,0.2,0,0.3,0.1c0,0.1,0.1,0.3,0.2,0.5c0.1,0.2,0.2,0.5,0.3,0.8c0.1,0.3,0.2,0.5,0.4,0.7
			c0.1,0.2,0.2,0.4,0.3,0.4c0.2,0.2,0.3,0.3,0.4,0.3c0.1,0,0.2-0.1,0.2-0.3c0-0.2,0-0.4,0-0.7s0-0.6-0.1-1c0-0.3-0.1-0.7-0.2-1
			c-0.1-0.3-0.1-0.6-0.2-0.9l0.3-0.5c0.1,0.1,0.2,0.2,0.3,0.3c0.1,0.1,0.2,0.2,0.3,0.4c0.1,0.1,0.2,0.2,0.3,0.3
			c0.1,0.1,0.2,0.2,0.3,0.3c0.2,0.1,0.3,0.1,0.4,0c0.1-0.1,0.2-0.2,0.3-0.3c0.1-0.2,0.2-0.4,0.3-0.7c0.1-0.3,0.1-0.5,0.1-0.8
			s-0.1-0.5-0.2-0.8c-0.1-0.2-0.3-0.4-0.5-0.6c-0.2-0.1-0.4-0.2-0.6-0.3c-0.2,0-0.4-0.1-0.6-0.3c-0.2-0.2-0.3-0.4-0.1-0.6
			c0.1-0.1,0.2-0.2,0.3-0.2c0.2,0,0.3,0,0.5,0c0.2,0,0.3,0.1,0.5,0.1s0.3,0.1,0.4,0.2c0.4,0.3,0.7,0.6,0.9,1
			c0.2,0.4,0.3,0.8,0.3,1.2c0,0.4,0,0.9-0.2,1.3c-0.1,0.4-0.3,0.8-0.5,1.2c-0.2,0.3-0.4,0.5-0.8,0.5c-0.3,0-0.6,0-0.9-0.2
			c-0.1,0.3-0.1,0.5,0,0.8c0,0.3,0.1,0.6,0.2,0.9s0.1,0.6,0.1,0.9c0,0.3-0.1,0.5-0.2,0.8c0,0.1-0.1,0.1-0.2,0.2
			c-0.1,0.1-0.2,0.1-0.4,0.1c-0.1,0-0.3,0-0.4,0C255.9,104.2,255.9,104.2,255.8,104.2z"/>
		<path class="st6" d="M260.7,96.5c-0.4-0.4-0.7-0.7-1-1.2c-0.2-0.4-0.4-0.9-0.5-1.3c-0.1-0.4-0.2-0.8-0.2-1.2
			c0-0.4,0.1-0.8,0.2-1.1c0.1-0.3,0.3-0.6,0.5-0.7s0.5-0.3,0.8-0.3c0.2,0.1,0.3,0.3,0.4,0.4s0.2,0.4,0.3,0.6
			c0.1,0.2,0.2,0.4,0.3,0.6c0.1,0.2,0.3,0.3,0.5,0.5c0.2,0.1,0.4,0.2,0.6,0.2s0.3-0.1,0.5-0.4c0.1-0.2,0.2-0.4,0.3-0.6
			c0.1-0.2,0.1-0.4,0.3-0.6c0,0,0.1-0.1,0.1-0.2c0.1-0.1,0.1-0.1,0.1-0.1c0.1,0.2,0.1,0.4,0.1,0.6c0,0.2,0,0.4-0.1,0.6
			c0,0.2-0.1,0.4-0.2,0.6s-0.2,0.4-0.3,0.5c-0.1,0.1-0.2,0.2-0.3,0.3c-0.1,0.1-0.3,0.1-0.4,0.1c-0.1,0-0.3,0-0.5,0
			c-0.2,0-0.3-0.1-0.4-0.2c0.1,0.2,0.1,0.4,0.2,0.6c0.1,0.2,0.1,0.4,0.1,0.7c0,0.2,0,0.4,0,0.7c0,0.2-0.1,0.4-0.2,0.6
			c-0.1,0.2-0.3,0.3-0.6,0.4C261.2,96.7,260.9,96.6,260.7,96.5z M260.9,95.5c0.1,0,0.1,0.1,0.2,0.1c0.1,0,0.2,0,0.2,0
			c0.1-0.2,0.1-0.5,0.1-0.9c0-0.3,0-0.7-0.1-1c-0.1-0.3-0.2-0.7-0.3-1c-0.1-0.3-0.3-0.5-0.6-0.7c0,0,0,0-0.1,0c0,0-0.1,0-0.1,0
			c-0.2,0.3-0.3,0.6-0.3,0.9c-0.1,0.3-0.1,0.7,0,1c0.1,0.3,0.2,0.6,0.3,0.9C260.4,95.1,260.6,95.3,260.9,95.5z"/>
		<path class="st6" d="M263.5,91.5c-0.1,0-0.1-0.1-0.2-0.2c-0.1-0.1-0.2-0.2-0.3-0.3s-0.2-0.2-0.3-0.2c-0.1-0.1-0.1-0.1-0.1-0.2
			l-2.8-4.8c0-0.1-0.1-0.2-0.1-0.3c-0.1-0.2-0.1-0.3-0.2-0.5c-0.1-0.2-0.1-0.4-0.1-0.5s-0.1-0.3-0.1-0.4c0.1,0,0.1-0.1,0.2-0.1
			c0.1,0,0.1,0,0.2,0c0.1,0,0.1,0.1,0.1,0.1c0,0,0.1,0.1,0.1,0.1c0,0,0.1,0.1,0.2,0.1c0.1,0,0.1,0.1,0.1,0.1
			c0.2,0.2,0.3,0.5,0.5,0.8c0.2,0.3,0.4,0.7,0.6,1.1c0.2,0.4,0.4,0.8,0.6,1.3c0.2,0.4,0.4,0.8,0.7,1.2c0.2,0.4,0.5,0.7,0.7,1.1
			c0.2,0.3,0.5,0.6,0.8,0.7c0.1,0.1,0.3,0.1,0.4,0.1c0.1,0,0.3-0.1,0.4-0.1c0.1-0.1,0.2-0.1,0.4-0.1s0.2,0,0.3,0
			c0.1,0,0.1,0.1,0.1,0.2c0,0.1,0,0.2-0.1,0.3c-0.2,0.3-0.5,0.5-0.8,0.7C264.2,91.7,263.9,91.7,263.5,91.5z"/>
		<path class="st6" d="M265.9,86.5c0.1,0.2,0.2,0.3,0.3,0.5c0.1,0.2,0.2,0.3,0.3,0.5c0.1,0.2,0.1,0.3,0.2,0.5c0,0.2,0,0.3-0.1,0.5
			c-0.1,0.1-0.2,0.2-0.3,0.3c-0.1,0-0.2,0-0.4-0.1c-0.2-0.1-0.4-0.3-0.5-0.5c-0.2-0.2-0.3-0.5-0.4-0.8c-0.1-0.3-0.2-0.6-0.3-0.8
			s-0.2-0.5-0.2-0.7l-3.2-5.1c-0.1-0.1-0.2-0.3-0.2-0.5c0-0.2,0-0.4,0.1-0.6l0.4,0.2l2,3l0.3,0.2c0.1-0.1,0.1-0.3,0.2-0.4
			c0-0.1,0.1-0.3,0.1-0.4c0-0.1,0.1-0.3,0.1-0.5c0-0.2,0.1-0.3,0.2-0.5c0.2-0.1,0.3-0.1,0.5,0c0.1,0.1,0.3,0.2,0.4,0.4
			s0.2,0.4,0.3,0.6c0.1,0.2,0.1,0.5,0.2,0.7c0.1,0.2,0.1,0.5,0.1,0.7c0,0.2,0.1,0.4,0.1,0.5c0,0.2,0,0.3,0,0.4s0,0.2-0.1,0.3
			c0,0.1,0,0.2,0,0.2c0,0.1,0.1,0.2,0.3,0.3c0.2,0.1,0.4,0.2,0.6,0.2c0.2,0,0.4-0.1,0.6-0.3s0.4-0.3,0.6-0.5
			c0.2-0.2,0.3-0.4,0.5-0.7s0.3-0.5,0.4-0.7c0.1-0.2,0.2-0.4,0.3-0.6l0.2,0c0.1,0.2,0.1,0.4,0.1,0.6c0,0.2,0,0.5-0.1,0.7
			c0,0.3-0.1,0.5-0.2,0.7c-0.1,0.2-0.2,0.4-0.2,0.5c-0.2,0.2-0.4,0.5-0.6,0.6c-0.2,0.2-0.5,0.3-0.7,0.4c-0.3,0.1-0.5,0.2-0.8,0.2
			C266.5,86.6,266.2,86.6,265.9,86.5z M264.8,82.6c0,0.1-0.1,0.2-0.1,0.4s-0.1,0.4-0.1,0.5c0,0.2,0,0.4,0,0.5c0,0.2,0.1,0.3,0.2,0.3
			l0.1,0.1c0-0.1,0-0.2,0.1-0.4c0-0.2,0.1-0.3,0.1-0.5c0-0.2,0-0.4,0-0.6C265,82.8,264.9,82.7,264.8,82.6z"/>
		<path class="st6" d="M269.9,80.6c-0.1,0.2-0.3,0.4-0.5,0.6s-0.4,0.4-0.7,0.5c-0.3,0.1-0.5,0.2-0.8,0.3c-0.3,0-0.5,0-0.8-0.2
			c-0.1-0.1-0.2-0.2-0.2-0.3c0-0.1,0-0.2,0-0.4c0-0.1,0.1-0.2,0.2-0.4c0.1-0.1,0.1-0.2,0.2-0.3c0.2-0.3,0.3-0.5,0.4-0.6
			c0.1-0.1,0.3-0.2,0.4-0.2c0.1,0,0.2,0,0.3,0c0.1,0,0.2,0,0.3,0.1c0.1,0,0.2,0,0.4,0c0.1,0,0.3-0.1,0.5-0.1c0-0.2-0.1-0.3-0.2-0.6
			c-0.1-0.2-0.3-0.5-0.5-0.7s-0.4-0.5-0.6-0.8s-0.4-0.5-0.5-0.7c-0.2-0.2-0.3-0.4-0.4-0.6c-0.1-0.2-0.1-0.3,0-0.4
			c0-0.1,0.1-0.1,0.2-0.1c0.1,0,0.1,0,0.2,0c0.1,0,0.1,0.1,0.2,0.1c0.1,0,0.1,0.1,0.2,0.1c0,0,0.1,0.1,0.2,0.1
			c0.1,0.1,0.1,0.1,0.1,0.1l1.4,2.4l0.1,0.1c0.2-0.3,0.3-0.6,0.3-0.9c0-0.4,0-0.7,0-1c0-0.3,0-0.7-0.1-0.9c0-0.3,0-0.5,0.1-0.6
			c0.2,0.2,0.4,0.4,0.5,0.6c0.1,0.3,0.2,0.5,0.2,0.9s0,0.6,0,0.9c0,0.3-0.1,0.6-0.1,0.9c-0.1,0.3-0.1,0.5-0.1,0.7c0,0.2,0,0.3,0,0.4
			l1.2,1.4c0,0,0,0,0,0.1c0,0,0,0.1,0,0.1c0,0-0.1,0.1-0.1,0.1c-0.1,0.1-0.1,0.1-0.2,0.2c-0.1,0.1-0.1,0.1-0.2,0.1
			c-0.1,0-0.1,0-0.2,0L269.9,80.6z M267.6,81.1c0.1,0.1,0.3,0.1,0.4,0s0.3-0.1,0.4-0.2c0.1-0.1,0.3-0.2,0.4-0.4s0.2-0.2,0.2-0.3
			c0,0,0,0,0,0s0,0,0,0c-0.1-0.1-0.3-0.1-0.4,0c-0.1,0.1-0.3,0.1-0.4,0.3c-0.1,0.1-0.2,0.2-0.3,0.4S267.7,81,267.6,81.1z"/>
		<path class="st6" d="M273.1,76.4c-0.2-0.1-0.4-0.3-0.6-0.6c-0.2-0.2-0.3-0.5-0.5-0.7c-0.1-0.3-0.3-0.5-0.4-0.8
			c-0.1-0.3-0.3-0.5-0.5-0.7c0,0.2,0,0.4-0.1,0.5c-0.1,0.1-0.1,0.2-0.2,0.4c0,0,0,0.1-0.1,0.1c-0.1,0.1-0.1,0.1-0.1,0.2
			c-0.1-0.2-0.2-0.3-0.3-0.5c-0.1-0.2-0.1-0.4-0.1-0.6c0-0.2,0-0.4,0.1-0.6c0-0.2,0.1-0.4,0.1-0.6c-0.2-0.5-0.5-0.9-0.7-1.3
			c-0.3-0.4-0.5-0.8-0.8-1.1c-0.3-0.4-0.5-0.8-0.7-1.2c-0.2-0.4-0.3-0.9-0.4-1.4l0.5,0.2l2.4,3.6c0-0.1,0.1-0.2,0.1-0.4
			c0.1-0.1,0.1-0.3,0.2-0.4c0.1-0.1,0.1-0.3,0.2-0.4c0.1-0.1,0.1-0.2,0.1-0.3c0,0,0,0,0-0.1c0,0,0-0.1,0.1-0.1
			c0.1-0.1,0.1-0.2,0.2-0.2c0.1,0,0.2,0,0.4,0c-0.2,0.6-0.3,1.2-0.4,1.7c-0.1,0.5-0.1,1,0,1.5c0.1,0.5,0.3,1,0.5,1.4
			c0.3,0.5,0.7,0.9,1.3,1.4c0.1,0.1,0.3,0.2,0.4,0.2c0.1,0.1,0.3,0,0.4-0.2c0.1-0.2,0.2-0.4,0.2-0.6c0-0.2,0.1-0.4,0.1-0.6
			c0-0.2,0-0.4,0.1-0.6c0-0.2,0.1-0.4,0.2-0.6c0.2,0.1,0.3,0.3,0.4,0.6c0.1,0.3,0.1,0.5,0,0.8c0,0.3-0.1,0.6-0.2,0.9
			c-0.1,0.3-0.2,0.5-0.3,0.6c-0.1,0.2-0.2,0.3-0.4,0.4c-0.1,0.1-0.3,0.1-0.4,0.1s-0.3,0-0.5,0C273.4,76.6,273.2,76.5,273.1,76.4z"/>
		<path class="st6" d="M275.5,73.5c-0.4-0.3-0.7-0.7-1-1.2c-0.2-0.4-0.4-0.9-0.5-1.3c-0.1-0.4-0.2-0.8-0.2-1.2
			c0-0.4,0.1-0.8,0.2-1.1c0.1-0.3,0.3-0.6,0.5-0.7c0.2-0.2,0.5-0.3,0.8-0.3c0.2,0.1,0.3,0.3,0.4,0.4s0.2,0.4,0.3,0.6
			c0.1,0.2,0.2,0.4,0.3,0.6s0.3,0.3,0.5,0.5c0.2,0.1,0.4,0.2,0.6,0.2c0.2,0,0.3-0.1,0.5-0.4c0.1-0.2,0.2-0.4,0.3-0.6
			c0.1-0.2,0.1-0.4,0.3-0.6c0,0,0.1-0.1,0.1-0.2s0.1-0.1,0.1-0.1c0.1,0.2,0.1,0.4,0.1,0.6c0,0.2,0,0.4-0.1,0.6
			c0,0.2-0.1,0.4-0.2,0.6c-0.1,0.2-0.2,0.4-0.3,0.5c-0.1,0.1-0.2,0.2-0.3,0.3c-0.1,0.1-0.3,0.1-0.4,0.1s-0.3,0-0.5,0
			c-0.2,0-0.3-0.1-0.4-0.2c0.1,0.2,0.1,0.4,0.2,0.6c0.1,0.2,0.1,0.4,0.1,0.7s0,0.4,0,0.7c0,0.2-0.1,0.4-0.2,0.6
			c-0.1,0.2-0.3,0.3-0.6,0.4C275.9,73.7,275.7,73.6,275.5,73.5z M275.6,72.5c0.1,0,0.1,0.1,0.2,0.1c0.1,0,0.2,0,0.2,0
			c0.1-0.2,0.1-0.5,0.1-0.9c0-0.3,0-0.7-0.1-1c-0.1-0.3-0.2-0.7-0.3-1c-0.1-0.3-0.3-0.5-0.6-0.7c0,0,0,0-0.1,0c0,0-0.1,0-0.1,0
			c-0.2,0.3-0.3,0.6-0.3,0.9c-0.1,0.3-0.1,0.7,0,1c0.1,0.3,0.2,0.6,0.3,0.9C275.2,72.1,275.4,72.3,275.6,72.5z"/>
		<path class="st6" d="M278.3,68.5c-0.1,0-0.1-0.1-0.2-0.2c-0.1-0.1-0.2-0.2-0.3-0.3s-0.2-0.2-0.3-0.2c-0.1-0.1-0.1-0.1-0.1-0.2
			l-2.8-4.8c0-0.1-0.1-0.2-0.1-0.3c-0.1-0.2-0.1-0.3-0.2-0.5c-0.1-0.2-0.1-0.4-0.1-0.5c0-0.2-0.1-0.3-0.1-0.4c0.1,0,0.1-0.1,0.2-0.1
			c0.1,0,0.1,0,0.2,0c0.1,0,0.1,0.1,0.1,0.1c0,0,0.1,0.1,0.1,0.1c0,0,0.1,0.1,0.2,0.1c0.1,0,0.1,0.1,0.1,0.1
			c0.2,0.2,0.3,0.5,0.5,0.8c0.2,0.3,0.4,0.7,0.6,1.1c0.2,0.4,0.4,0.8,0.6,1.3c0.2,0.4,0.4,0.8,0.7,1.2c0.2,0.4,0.5,0.7,0.7,1.1
			c0.2,0.3,0.5,0.6,0.8,0.7c0.1,0.1,0.3,0.1,0.4,0.1c0.1,0,0.3-0.1,0.4-0.1c0.1-0.1,0.2-0.1,0.4-0.1s0.2,0,0.3,0
			c0.1,0,0.1,0.1,0.1,0.2c0,0.1,0,0.2-0.1,0.3c-0.2,0.3-0.5,0.5-0.8,0.7C279,68.7,278.6,68.7,278.3,68.5z"/>
		<path class="st6" d="M280.7,63.5c0.1,0.2,0.2,0.3,0.3,0.5c0.1,0.2,0.2,0.3,0.3,0.5c0.1,0.2,0.1,0.3,0.2,0.5c0,0.2,0,0.3-0.1,0.5
			c-0.1,0.1-0.2,0.2-0.3,0.3c-0.1,0-0.2,0-0.4-0.1c-0.2-0.1-0.4-0.3-0.5-0.5c-0.2-0.2-0.3-0.5-0.4-0.8c-0.1-0.3-0.2-0.6-0.3-0.8
			c-0.1-0.3-0.2-0.5-0.2-0.7l-3.2-5.1c-0.1-0.1-0.2-0.3-0.2-0.5s0-0.4,0.1-0.6l0.4,0.2l2,3l0.3,0.2c0.1-0.1,0.1-0.3,0.2-0.4
			s0.1-0.3,0.1-0.4c0-0.1,0.1-0.3,0.1-0.5c0-0.2,0.1-0.3,0.2-0.5c0.2-0.1,0.3-0.1,0.5,0c0.1,0.1,0.3,0.2,0.4,0.4
			c0.1,0.2,0.2,0.4,0.3,0.6c0.1,0.2,0.1,0.5,0.2,0.7c0.1,0.2,0.1,0.5,0.1,0.7c0,0.2,0.1,0.4,0.1,0.5c0,0.2,0,0.3,0,0.4
			c0,0.1,0,0.2-0.1,0.3c0,0.1,0,0.2,0,0.2s0.1,0.2,0.3,0.3c0.2,0.1,0.4,0.2,0.6,0.2c0.2,0,0.4-0.1,0.6-0.3c0.2-0.1,0.4-0.3,0.6-0.5
			c0.2-0.2,0.3-0.4,0.5-0.7c0.2-0.2,0.3-0.5,0.4-0.7c0.1-0.2,0.2-0.4,0.3-0.6l0.2,0c0.1,0.2,0.1,0.4,0.1,0.6c0,0.2,0,0.5-0.1,0.7
			c0,0.3-0.1,0.5-0.2,0.7c-0.1,0.2-0.2,0.4-0.2,0.5c-0.2,0.2-0.4,0.5-0.6,0.6s-0.5,0.3-0.7,0.4c-0.3,0.1-0.5,0.2-0.8,0.2
			C281.2,63.6,281,63.6,280.7,63.5z M279.5,59.6c0,0.1-0.1,0.2-0.1,0.4c0,0.2-0.1,0.4-0.1,0.5c0,0.2,0,0.4,0,0.5
			c0,0.2,0.1,0.3,0.2,0.3l0.1,0.1c0-0.1,0-0.2,0.1-0.4c0-0.2,0.1-0.3,0.1-0.5c0-0.2,0-0.4,0-0.6C279.7,59.8,279.7,59.6,279.5,59.6z"
			/>
	</g>
	<g>
		<path class="st6" d="M136.8,266.8c0.1-0.1,0.2-0.2,0.3-0.3c0.1-0.1,0.3-0.1,0.4-0.1c0,0,0,0,0.1,0c0,0,0.1,0,0.1,0
			c0,0,0.1,0,0.1,0l-0.5,0.6c0.1,0,0.2,0,0.4-0.1s0.4-0.1,0.6-0.1c0.2-0.1,0.4-0.1,0.6-0.2c0.2-0.1,0.3-0.1,0.4-0.1l6.4-2.9
			c0.1,0,0.3,0,0.3,0c0.1,0,0.1,0.1,0.2,0.2c0,0.1,0,0.2,0,0.4l-4,1.9l-0.1,0.1c0.2,0.2,0.3,0.4,0.5,0.6c0.1,0.2,0.2,0.4,0.3,0.6
			c0,0.2,0,0.4,0,0.6c0,0.2-0.1,0.4-0.3,0.6c-0.3,0.3-0.6,0.6-1.1,0.8c-0.4,0.2-0.9,0.2-1.3,0.2c-0.5,0-0.9-0.1-1.4-0.2
			c-0.5-0.1-0.8-0.3-1.2-0.6c-0.1-0.1-0.3-0.3-0.4-0.4c-0.1-0.2-0.2-0.4-0.3-0.5c-0.1-0.2-0.1-0.4-0.1-0.6
			C136.6,267.2,136.6,267,136.8,266.8z M141.5,267.2c-0.1-0.1-0.2-0.1-0.4-0.1c-0.2,0-0.4,0-0.6,0.1c-0.2,0.1-0.5,0.1-0.7,0.2
			c-0.3,0.1-0.5,0.2-0.7,0.3c-0.2,0.1-0.4,0.2-0.6,0.3c-0.2,0.1-0.3,0.2-0.4,0.3c0.2,0.2,0.5,0.3,0.8,0.4c0.3,0.1,0.7,0.2,1,0.2
			c0.3,0,0.7,0,1-0.1c0.3-0.1,0.5-0.2,0.7-0.5c0.2-0.2,0.2-0.4,0.3-0.6C141.8,267.5,141.7,267.4,141.5,267.2z"/>
		<path class="st6" d="M141.6,270.8c0,0,0.1-0.1,0.1-0.2c0.1-0.1,0.1-0.1,0.1-0.2c0.6-0.3,1.3-0.6,2-0.7c0.7-0.2,1.4-0.2,2.1-0.2
			c0,0,0,0,0.1,0s0.1,0,0.1,0c0.2,0.2,0.3,0.3,0.4,0.5c0.1,0.2,0.1,0.4,0,0.6c0,0.2-0.1,0.4-0.2,0.6c-0.1,0.2-0.2,0.3-0.3,0.5
			c-0.2,0.3-0.5,0.5-0.9,0.7c-0.4,0.2-0.8,0.3-1.2,0.4c-0.4,0.1-0.8,0.1-1.2,0s-0.8-0.2-1.1-0.4s-0.5-0.5-0.5-0.8
			C141.3,271.4,141.4,271.1,141.6,270.8z M142.6,271.4c-0.1,0.1-0.1,0.2,0,0.2c0,0.1,0.1,0.1,0.2,0.2c0.2,0.1,0.4,0.2,0.6,0.3
			s0.5,0,0.7,0c0.2,0,0.5-0.1,0.7-0.2c0.2-0.1,0.4-0.3,0.5-0.4c0.1-0.1,0.1-0.2,0.2-0.3c0.1-0.1,0.1-0.2,0.1-0.3c0-0.1,0-0.2,0-0.3
			c0-0.1-0.1-0.2-0.3-0.3c-0.1-0.1-0.3-0.1-0.6,0c-0.3,0.1-0.5,0.2-0.8,0.3c-0.3,0.1-0.6,0.3-0.8,0.4
			C142.9,271.1,142.7,271.2,142.6,271.4z"/>
		<path class="st6" d="M147.5,275.6c0.2-0.2,0.4-0.4,0.6-0.5c0.2-0.1,0.5-0.2,0.7-0.3c0.2-0.1,0.5-0.2,0.7-0.3
			c0.2-0.1,0.4-0.2,0.6-0.4c0,0,0.1-0.1,0.1-0.2c0-0.1,0.1-0.1,0.1-0.2c0-0.1,0.1-0.1,0.1-0.2c0-0.1,0-0.1-0.1-0.2c0,0,0,0,0,0
			c0,0,0,0,0,0c-0.2,0.1-0.4,0.1-0.7,0.2s-0.6,0.1-0.8,0.1c-0.3,0-0.6,0.1-0.8,0.1c-0.3,0-0.5,0-0.7,0.1c-0.1,0-0.3,0-0.6,0
			c-0.3,0-0.5,0-0.8,0.1s-0.5,0-0.7,0c-0.2,0-0.3,0-0.3,0l-0.2-0.8c0.1,0.1,0.1,0.1,0.2,0.1c0.1,0,0.2,0,0.3,0
			c0.7,0.1,1.3,0,1.9-0.1c0.6-0.1,1.3-0.2,2-0.4c0,0,0.1,0,0.3-0.1c0.1-0.1,0.3-0.1,0.5-0.2c0.2-0.1,0.4-0.2,0.5-0.2
			s0.3-0.1,0.4-0.2c0.1-0.1,0.2-0.1,0.3-0.2c0.1,0,0.1-0.1,0.1-0.1s0.1,0,0.1,0c0,0,0.1,0.1,0.2,0.1c0,0,0,0,0.1,0.1
			c0,0.1,0.1,0.1,0.1,0.1c-0.1,0.3-0.1,0.5-0.2,0.7c0,0.2-0.1,0.4-0.2,0.6s-0.1,0.3-0.2,0.5c-0.1,0.2-0.2,0.3-0.3,0.5
			c-0.3,0.2-0.6,0.3-0.9,0.5c-0.3,0.2-0.6,0.3-0.8,0.5c-0.3,0.2-0.5,0.3-0.6,0.5c-0.2,0.2-0.2,0.3-0.2,0.5s0.1,0.4,0.4,0.6
			s0.6,0.4,1.1,0.6c0.1,0.1,0,0.2-0.1,0.2c-0.2,0-0.4,0-0.6-0.1c-0.2-0.1-0.5-0.2-0.8-0.3c-0.3-0.1-0.5-0.3-0.6-0.4
			c-0.1-0.1-0.2-0.2-0.3-0.3c-0.1-0.1-0.1-0.2-0.1-0.4c0-0.1,0-0.2,0.1-0.4C147.4,275.9,147.5,275.8,147.5,275.6z"/>
		<path class="st6" d="M149.5,276.8c0.3-0.4,0.7-0.6,1.1-0.8c0.5-0.2,1-0.3,1.5-0.3c0.5,0,1,0,1.5,0.2c0.5,0.1,0.9,0.3,1.3,0.6
			c0.1,0.1,0.2,0.2,0.3,0.4c0.1,0.1,0.2,0.3,0.3,0.4l0.1,0.1c0.1-0.1,0.3-0.1,0.5-0.3s0.5-0.2,0.8-0.4s0.6-0.2,0.8-0.4
			c0.3-0.1,0.5-0.2,0.6-0.2c0.2-0.1,0.4-0.2,0.7-0.3c0.3-0.1,0.6-0.2,0.9-0.3s0.5-0.2,0.7-0.2c0.2-0.1,0.3-0.1,0.3-0.1l0.1,0.8
			c0,0-0.1,0.1-0.2,0.1c-0.1,0.1-0.3,0.2-0.6,0.3c-0.2,0.1-0.5,0.2-0.8,0.4s-0.6,0.3-0.9,0.4c-0.3,0.1-0.6,0.3-0.8,0.4
			c-0.3,0.1-0.5,0.2-0.7,0.3c-0.5,0.2-1,0.3-1.5,0.5c-0.5,0.2-0.9,0.3-1.3,0.5c-0.4,0.2-0.6,0.4-0.8,0.6c-0.2,0.2-0.2,0.5,0,0.7
			c0.5,0.3,0.8,0.5,1,0.7c0.2,0.2,0.3,0.3,0.3,0.4c0,0.1-0.1,0.2-0.2,0.2c-0.1,0-0.3,0-0.5,0c-0.2-0.1-0.4-0.2-0.6-0.3
			c-0.2-0.1-0.4-0.3-0.5-0.5c-0.1-0.2-0.2-0.5-0.3-0.8c0-0.3,0-0.6,0.2-1l-2.8,0.1c-0.1-0.1-0.2-0.1-0.3-0.2s-0.2-0.1-0.3-0.1
			c-0.1,0-0.2-0.1-0.2-0.1l-0.1-0.1c-0.2-0.1-0.3-0.3-0.3-0.4c-0.1-0.1-0.1-0.3-0.1-0.4c0-0.1,0.1-0.3,0.2-0.4
			C149.3,277.1,149.4,277,149.5,276.8z M150.3,277.3c0,0-0.1,0.1-0.1,0.1c0,0.1-0.1,0.1-0.1,0.2s0,0.1,0,0.2c0,0.1,0,0.1,0.1,0.2
			c0.1,0.1,0.2,0.1,0.4,0.2c0.2,0,0.4,0.1,0.6,0.1c0.2,0,0.4,0,0.6,0c0.2,0,0.3,0,0.4,0c0.1,0,0.3,0,0.5-0.1c0.2,0,0.5-0.1,0.8-0.1
			s0.5-0.1,0.7-0.1c0.2,0,0.4,0,0.5-0.1l0,0c0,0,0,0,0,0c0,0,0,0,0,0c0.1-0.1,0.1-0.1,0.1-0.2c0-0.1,0-0.1-0.1-0.2s-0.1-0.1-0.2-0.1
			c-0.1,0-0.1-0.1-0.1-0.1c-0.3-0.2-0.6-0.4-0.9-0.5c-0.4-0.1-0.7-0.2-1.1-0.2s-0.8,0-1.1,0.2C150.8,276.8,150.6,277,150.3,277.3z"
			/>
		<path class="st6" d="M154.8,281.8c0.1-0.1,0.2-0.2,0.5-0.4c0.2-0.1,0.5-0.3,0.8-0.4c0.3-0.1,0.6-0.3,0.9-0.4
			c0.3-0.1,0.6-0.2,0.9-0.3c0.3-0.1,0.5-0.1,0.8-0.2c0.2,0,0.4,0,0.5,0.1c0.2,0.2,0.2,0.3,0.1,0.5c-0.1,0.1-0.1,0.1-0.2,0.2
			s-0.2,0.1-0.2,0.1s-0.2,0-0.3,0c-0.1,0-0.2,0-0.3,0.1c-0.1,0.1-0.3,0.1-0.6,0.3c-0.2,0.1-0.5,0.2-0.7,0.3
			c-0.2,0.1-0.4,0.2-0.6,0.3c-0.2,0.1-0.3,0.1-0.3,0.1l-0.1,0.1c0.3,0.2,0.7,0.3,1.1,0.3c0.4,0,0.8,0,1.3-0.1
			c0.4-0.1,0.9-0.2,1.3-0.3s0.8-0.2,1.2-0.3c0.4-0.1,0.7-0.2,1-0.2c0.3,0,0.5,0,0.6,0.1c-0.2,0.3-0.5,0.5-0.7,0.6
			c-0.3,0.1-0.6,0.2-0.8,0.4s-0.6,0.2-0.9,0.4c-0.3,0.1-0.5,0.3-0.7,0.6c-0.1,0.1-0.1,0.3,0,0.5s0.2,0.4,0.3,0.6s0.3,0.4,0.4,0.6
			c0.1,0.2,0.2,0.3,0.3,0.3l-0.2,0.3c-0.2-0.1-0.4-0.3-0.6-0.5c-0.2-0.2-0.5-0.4-0.7-0.7c-0.2-0.2-0.4-0.5-0.5-0.8
			c-0.1-0.3-0.1-0.6,0-0.8c-0.3,0-0.6,0-0.9,0c-0.3,0-0.6,0-0.9,0c-0.3,0-0.6,0-0.9-0.1c-0.3-0.1-0.5-0.2-0.8-0.4
			c-0.1-0.1-0.2-0.3-0.2-0.5C154.6,282.1,154.7,282,154.8,281.8z"/>
		<path class="st6" d="M162.5,287.5c0.2-0.2,0.4-0.4,0.6-0.5c0.2-0.1,0.5-0.2,0.7-0.3c0.2-0.1,0.5-0.2,0.7-0.3
			c0.2-0.1,0.4-0.2,0.6-0.4c0,0,0.1-0.1,0.1-0.2c0-0.1,0.1-0.1,0.1-0.2c0-0.1,0.1-0.1,0-0.2c0-0.1,0-0.1-0.1-0.2c0,0,0,0,0,0
			c0,0,0,0,0,0c-0.2,0.1-0.4,0.1-0.7,0.2c-0.3,0.1-0.6,0.1-0.8,0.1c-0.3,0-0.6,0.1-0.8,0.1c-0.3,0-0.5,0-0.7,0.1c-0.1,0-0.3,0-0.6,0
			s-0.5,0-0.8,0.1c-0.3,0-0.5,0-0.7,0c-0.2,0-0.3,0-0.3,0l-0.2-0.8c0.1,0.1,0.1,0.1,0.2,0.1s0.2,0,0.3,0c0.7,0.1,1.3,0,1.9-0.1
			c0.6-0.1,1.3-0.2,2-0.4c0,0,0.1,0,0.3-0.1c0.1-0.1,0.3-0.1,0.5-0.2c0.2-0.1,0.4-0.2,0.5-0.2c0.2-0.1,0.3-0.1,0.4-0.2
			c0.1-0.1,0.2-0.1,0.3-0.2s0.1-0.1,0.1-0.1s0.1,0,0.1,0c0,0,0.1,0,0.2,0.1c0,0,0,0,0.1,0.1c0,0.1,0.1,0.1,0.1,0.1
			c-0.1,0.3-0.1,0.5-0.2,0.7c0,0.2-0.1,0.4-0.2,0.6c-0.1,0.2-0.1,0.3-0.2,0.5c-0.1,0.2-0.2,0.3-0.3,0.5c-0.3,0.2-0.6,0.3-0.9,0.5
			c-0.3,0.2-0.6,0.3-0.8,0.5c-0.3,0.2-0.5,0.3-0.6,0.5s-0.2,0.3-0.2,0.5c0,0.2,0.1,0.4,0.4,0.6c0.2,0.2,0.6,0.4,1.1,0.6
			c0.1,0.1,0,0.2-0.1,0.2s-0.4,0-0.6-0.1c-0.2-0.1-0.5-0.2-0.8-0.3c-0.3-0.1-0.5-0.3-0.6-0.4c-0.1-0.1-0.2-0.2-0.3-0.3
			s-0.1-0.2-0.1-0.4c0-0.1,0-0.2,0.1-0.4C162.3,287.7,162.4,287.6,162.5,287.5z"/>
		<path class="st6" d="M164.1,289.3c0.1-0.4,0.3-0.7,0.5-0.9c0.2-0.2,0.5-0.4,0.8-0.6c0.3-0.2,0.6-0.3,0.9-0.3
			c0.3-0.1,0.6-0.1,0.9-0.1c0.3,0,0.6,0.1,0.8,0.1c0.3,0.1,0.5,0.2,0.6,0.3c0.1,0.1,0.2,0.3,0.2,0.4s-0.1,0.3-0.3,0.5
			c-0.2,0.3-0.5,0.5-0.8,0.5c-0.3,0.1-0.7,0.1-1,0.1c-0.3,0-0.7,0-0.9,0c-0.3,0-0.5,0-0.6,0.2c-0.1,0.1-0.1,0.1,0,0.2
			s0.1,0.2,0.2,0.3s0.2,0.2,0.3,0.3s0.2,0.2,0.2,0.2c0.8,0.4,1.4,0.7,1.7,0.9s0.6,0.4,0.6,0.5c0.1,0.1,0,0.2-0.2,0.1
			c-0.2,0-0.4-0.1-0.7-0.2s-0.7-0.2-1-0.4s-0.7-0.4-1-0.6s-0.6-0.5-0.8-0.8C164.2,289.8,164.1,289.6,164.1,289.3z M167.9,288.3
			c-0.1-0.1-0.3-0.2-0.5-0.2c-0.2,0-0.4,0-0.6,0c-0.2,0-0.4,0.1-0.6,0.2c-0.2,0.1-0.3,0.2-0.5,0.3c0,0,0,0,0,0l0,0
			c0.1,0.1,0.2,0.1,0.4,0.1c0.2,0,0.4,0,0.6,0c0.2,0,0.4-0.1,0.6-0.2C167.7,288.5,167.8,288.4,167.9,288.3z"/>
		<path class="st6" d="M167.8,292.3c0.1-0.1,0.1-0.1,0.1-0.1s0.1-0.1,0.1-0.1c0,0,0.1,0,0.1-0.1c0,0,0.1,0,0.2-0.1
			c0.1-0.1,0.4-0.1,0.7-0.3c0.4-0.1,0.7-0.3,1.1-0.4c0.4-0.1,0.8-0.3,1.1-0.4c0.4-0.1,0.6-0.2,0.8-0.3c0,0,0,0,0.1,0s0.1,0,0.1,0.1
			c0,0,0,0,0.1,0.1s0.1,0,0.1,0.1c0,0,0,0,0,0.1s0,0.1,0,0.2c0,0.1,0,0.1,0,0.2c0,0,0,0.1,0,0.1c0.1,0.1,0.1,0.1,0.3,0.1
			c0.1,0,0.2,0,0.3,0s0.2,0,0.3,0s0.2,0.1,0.3,0.1c0.1,0.1,0.2,0.2,0.2,0.3s0.1,0.2,0.1,0.3s0,0.2,0,0.3c0,0.1-0.1,0.2-0.1,0.3
			c-0.1,0.2-0.3,0.3-0.4,0.4c-0.2,0.1-0.3,0.2-0.5,0.3c-0.2,0.1-0.3,0.2-0.5,0.3c-0.2,0.1-0.3,0.2-0.4,0.4c-0.1,0.2-0.2,0.3-0.2,0.4
			c0,0.1,0.1,0.2,0.2,0.3c0.2,0.2,0.4,0.3,0.6,0.4s0.4,0.2,0.6,0.3c-0.1,0.2-0.3,0.3-0.5,0.3c-0.2,0-0.4,0-0.6,0
			c-0.2-0.1-0.4-0.1-0.6-0.3c-0.2-0.1-0.4-0.2-0.5-0.3c-0.3-0.2-0.4-0.4-0.4-0.7c0-0.3,0.1-0.5,0.3-0.8c0.1-0.2,0.3-0.3,0.5-0.4
			s0.4-0.2,0.6-0.3c0.2-0.1,0.4-0.2,0.5-0.3c0.2-0.1,0.3-0.2,0.5-0.4c0,0,0.1-0.1,0.1-0.2c0-0.1,0-0.2-0.1-0.2
			c-0.2-0.2-0.5-0.3-0.8-0.3c-0.3,0-0.6,0.1-1,0.2c-0.3,0.1-0.7,0.2-1,0.4c-0.3,0.2-0.6,0.3-0.9,0.5c-0.3,0.1-0.5,0.2-0.8,0.3
			s-0.4,0.1-0.5,0c-0.1-0.1-0.2-0.3-0.3-0.4C167.7,292.6,167.7,292.5,167.8,292.3z"/>
	</g>
	<g>
		<path class="st7" d="M127.7,146.7c-0.5,0-1-0.1-1.5-0.2c-0.4-0.2-0.8-0.4-1.2-0.7l0.7-0.9c0.3,0.3,0.7,0.4,1,0.6
			c0.3,0.1,0.7,0.2,1,0.2c0.5,0,0.8-0.1,1.1-0.2s0.4-0.4,0.4-0.7c0-0.2-0.1-0.4-0.2-0.5c-0.2-0.1-0.4-0.2-0.6-0.2
			c-0.3,0-0.5-0.1-0.8-0.1c-0.2,0-0.5-0.1-0.7-0.1c-0.2,0-0.5-0.1-0.7-0.2c-0.2-0.1-0.4-0.3-0.5-0.5c-0.1-0.2-0.2-0.5-0.2-0.9
			c0-0.7,0.2-1.1,0.6-1.5c0.4-0.3,1-0.5,1.8-0.5c0.5,0,0.9,0.1,1.3,0.2c0.4,0.1,0.8,0.3,1.2,0.6l-0.7,0.9c-0.3-0.2-0.6-0.3-0.9-0.4
			c-0.3-0.1-0.6-0.1-0.9-0.1c-0.4,0-0.7,0.1-0.9,0.2s-0.3,0.4-0.3,0.6c0,0.2,0.1,0.3,0.2,0.4s0.3,0.1,0.6,0.2c0.2,0,0.5,0,0.8,0.1
			c0.3,0,0.5,0,0.8,0.1c0.3,0,0.5,0.1,0.7,0.2c0.2,0.1,0.4,0.3,0.5,0.5s0.2,0.6,0.2,1c0,0.7-0.2,1.2-0.6,1.5
			C129.2,146.5,128.6,146.7,127.7,146.7z"/>
		<path class="st7" d="M133.1,138v7c0,0.1,0,0.3,0.1,0.3c0.1,0.1,0.2,0.1,0.3,0.1h0.6v1.2h-0.7c-0.5,0-0.8-0.1-1.1-0.4
			c-0.3-0.3-0.4-0.7-0.4-1.2v-7H133.1z"/>
		<path class="st7" d="M137.7,146.7c-0.8,0-1.4-0.2-1.9-0.7c-0.4-0.5-0.7-1.1-0.7-2v-1c0-0.8,0.2-1.5,0.7-2c0.4-0.5,1.1-0.7,1.9-0.7
			c0.8,0,1.4,0.2,1.9,0.7c0.4,0.5,0.7,1.1,0.7,2v1c0,0.8-0.2,1.5-0.7,2C139.2,146.5,138.5,146.7,137.7,146.7z M137.7,145.5
			c0.4,0,0.8-0.1,1-0.4c0.2-0.3,0.3-0.6,0.3-1.1v-1c0-0.5-0.1-0.8-0.3-1.1c-0.2-0.3-0.6-0.4-1-0.4c-0.4,0-0.7,0.1-1,0.4
			c-0.2,0.3-0.4,0.6-0.4,1.1v1c0,0.5,0.1,0.9,0.4,1.1C137,145.4,137.3,145.5,137.7,145.5z"/>
		<path class="st7" d="M143.1,146.6l-1.9-6.2h1.3l1.1,4.4l1.5-4.4h0.8l1.5,4.4l1.1-4.4h1.3l-1.9,6.2H147l-1.5-4.3l-1.5,4.3H143.1z"
			/>
		<path class="st7" d="M156.4,146.7c-0.7,0-1.2-0.2-1.6-0.7c-0.4-0.4-0.6-1.1-0.6-1.8v-1.4c0-0.8,0.2-1.4,0.5-1.9s0.9-0.7,1.5-0.7
			c0.4,0,0.7,0.1,1,0.3c0.3,0.2,0.5,0.5,0.7,0.8l-0.1,1.3c0-0.3,0-0.5-0.1-0.7c-0.1-0.2-0.2-0.3-0.4-0.4c-0.2-0.1-0.4-0.1-0.7-0.1
			c-0.4,0-0.7,0.1-0.9,0.4c-0.2,0.2-0.3,0.6-0.3,1.1v1.3c0,0.4,0.1,0.8,0.3,1c0.2,0.2,0.5,0.4,0.9,0.4c0.3,0,0.5,0,0.7-0.2
			c0.2-0.1,0.3-0.2,0.4-0.4c0.1-0.2,0.1-0.4,0.1-0.7l0.1,1.3c-0.1,0.3-0.3,0.5-0.6,0.7C157.2,146.6,156.8,146.7,156.4,146.7z
			 M157.9,146.6V138h1.2v8.6H157.9z"/>
		<path class="st7" d="M163,146.7c-0.8,0-1.3-0.2-1.7-0.5s-0.6-0.8-0.6-1.4c0-0.6,0.2-1.1,0.5-1.4c0.3-0.3,0.9-0.5,1.6-0.5h1.8
			l0.1,1h-1.8c-0.3,0-0.5,0.1-0.7,0.2s-0.2,0.4-0.2,0.6c0,0.3,0.1,0.5,0.3,0.7c0.2,0.2,0.5,0.2,0.9,0.2c0.5,0,0.8,0,1-0.1
			c0.2-0.1,0.3-0.3,0.3-0.5l0.1,0.9c-0.1,0.2-0.2,0.3-0.4,0.4c-0.2,0.1-0.3,0.2-0.5,0.2S163.2,146.7,163,146.7z M164.5,146.6v-3.9
			c0-0.4-0.1-0.7-0.3-0.9s-0.5-0.3-0.9-0.3c-0.2,0-0.5,0-0.7,0.1c-0.2,0.1-0.4,0.2-0.6,0.3l-0.9-0.6c0.2-0.3,0.5-0.5,0.9-0.7
			s0.8-0.2,1.3-0.2c0.8,0,1.4,0.2,1.8,0.6c0.4,0.4,0.6,1,0.6,1.7v4H164.5z"/>
		<path class="st7" d="M167,141.5v-1.1h2.8v1.1H167z M169.1,146.6c-0.5,0-0.9-0.1-1.1-0.4s-0.3-0.7-0.3-1.2v-6.4h1.2v6.4
			c0,0.1,0,0.3,0.1,0.3s0.1,0.1,0.3,0.1h0.6v1.2H169.1z"/>
		<path class="st7" d="M173.4,146.7c-0.8,0-1.3-0.2-1.7-0.5s-0.6-0.8-0.6-1.4c0-0.6,0.2-1.1,0.5-1.4c0.3-0.3,0.9-0.5,1.6-0.5h1.8
			l0.1,1h-1.8c-0.3,0-0.5,0.1-0.7,0.2s-0.2,0.4-0.2,0.6c0,0.3,0.1,0.5,0.3,0.7c0.2,0.2,0.5,0.2,0.9,0.2c0.5,0,0.8,0,1-0.1
			c0.2-0.1,0.3-0.3,0.3-0.5l0.1,0.9c-0.1,0.2-0.2,0.3-0.4,0.4c-0.2,0.1-0.3,0.2-0.5,0.2S173.7,146.7,173.4,146.7z M174.9,146.6v-3.9
			c0-0.4-0.1-0.7-0.3-0.9s-0.5-0.3-0.9-0.3c-0.2,0-0.5,0-0.7,0.1c-0.2,0.1-0.4,0.2-0.6,0.3l-0.9-0.6c0.2-0.3,0.5-0.5,0.9-0.7
			s0.8-0.2,1.3-0.2c0.8,0,1.4,0.2,1.8,0.6c0.4,0.4,0.6,1,0.6,1.7v4H174.9z"/>
		<path class="st7" d="M123.1,159.4l1.5-4.4h1.3l-2.3,6.2h-0.9l-2.3-6.2h1.3L123.1,159.4z"/>
		<path class="st7" d="M127,153.8v-1.2h1.2v1.2H127z M127,161.2V155h1.2v6.2H127z"/>
		<path class="st7" d="M132.2,161.3c-0.5,0-1-0.1-1.5-0.2c-0.4-0.2-0.8-0.4-1.2-0.7l0.7-0.9c0.3,0.3,0.7,0.4,1,0.6
			c0.3,0.1,0.7,0.2,1,0.2c0.5,0,0.8-0.1,1.1-0.2s0.4-0.4,0.4-0.7c0-0.2-0.1-0.4-0.2-0.5c-0.2-0.1-0.4-0.2-0.6-0.2
			c-0.3,0-0.5-0.1-0.8-0.1c-0.2,0-0.5-0.1-0.7-0.1c-0.2,0-0.5-0.1-0.7-0.2c-0.2-0.1-0.4-0.3-0.5-0.5c-0.1-0.2-0.2-0.5-0.2-0.9
			c0-0.7,0.2-1.1,0.6-1.5c0.4-0.3,1-0.5,1.8-0.5c0.5,0,0.9,0.1,1.3,0.2c0.4,0.1,0.8,0.3,1.2,0.6l-0.7,0.9c-0.3-0.2-0.6-0.3-0.9-0.4
			c-0.3-0.1-0.6-0.1-0.9-0.1c-0.4,0-0.7,0.1-0.9,0.2s-0.3,0.4-0.3,0.6c0,0.2,0.1,0.3,0.2,0.4s0.3,0.1,0.6,0.2c0.2,0,0.5,0,0.8,0.1
			c0.3,0,0.5,0,0.8,0.1c0.3,0,0.5,0.1,0.7,0.2c0.2,0.1,0.4,0.3,0.5,0.5s0.2,0.6,0.2,1c0,0.7-0.2,1.2-0.6,1.5
			C133.8,161.1,133.1,161.3,132.2,161.3z"/>
		<path class="st7" d="M137.6,155v3.7c0,0.4,0.1,0.8,0.3,1c0.2,0.2,0.5,0.4,0.9,0.4s0.7-0.1,0.9-0.3s0.3-0.5,0.3-0.9l0.1,1.3
			c-0.1,0.3-0.3,0.5-0.6,0.7s-0.6,0.3-1.1,0.3c-0.7,0-1.2-0.2-1.6-0.7c-0.4-0.4-0.6-1.1-0.6-1.8V155H137.6z M140.1,161.2V155h1.2
			v6.2H140.1z"/>
		<path class="st7" d="M145.1,161.3c-0.8,0-1.3-0.2-1.7-0.5c-0.4-0.3-0.6-0.8-0.6-1.4c0-0.6,0.2-1.1,0.5-1.4
			c0.3-0.3,0.9-0.5,1.6-0.5h1.8l0.1,1h-1.8c-0.3,0-0.5,0.1-0.7,0.2s-0.2,0.4-0.2,0.6c0,0.3,0.1,0.5,0.3,0.7c0.2,0.2,0.5,0.2,0.9,0.2
			c0.5,0,0.8,0,1-0.1c0.2-0.1,0.3-0.3,0.3-0.5l0.1,0.9c-0.1,0.2-0.2,0.3-0.4,0.4c-0.2,0.1-0.3,0.2-0.5,0.2
			C145.6,161.3,145.4,161.3,145.1,161.3z M146.6,161.2v-3.9c0-0.4-0.1-0.7-0.3-0.9s-0.5-0.3-0.9-0.3c-0.2,0-0.5,0-0.7,0.1
			c-0.2,0.1-0.4,0.2-0.6,0.3l-0.9-0.6c0.2-0.3,0.5-0.5,0.9-0.7c0.4-0.2,0.8-0.2,1.3-0.2c0.8,0,1.4,0.2,1.8,0.6
			c0.4,0.4,0.6,1,0.6,1.7v4H146.6z"/>
		<path class="st7" d="M150.8,152.6v7c0,0.1,0,0.3,0.1,0.3c0.1,0.1,0.2,0.1,0.3,0.1h0.6v1.2h-0.7c-0.5,0-0.8-0.1-1.1-0.4
			c-0.3-0.3-0.4-0.7-0.4-1.2v-7H150.8z"/>
		<path class="st7" d="M153.1,153.8v-1.2h1.2v1.2H153.1z M153.1,161.2V155h1.2v6.2H153.1z"/>
		<path class="st7" d="M158.4,161.3c-0.5,0-1-0.1-1.5-0.2c-0.4-0.2-0.8-0.4-1.2-0.7l0.7-0.9c0.3,0.3,0.7,0.4,1,0.6
			c0.3,0.1,0.7,0.2,1,0.2c0.5,0,0.8-0.1,1.1-0.2c0.2-0.1,0.4-0.4,0.4-0.7c0-0.2-0.1-0.4-0.2-0.5c-0.2-0.1-0.4-0.2-0.6-0.2
			c-0.3,0-0.5-0.1-0.8-0.1c-0.2,0-0.5-0.1-0.7-0.1c-0.2,0-0.5-0.1-0.7-0.2c-0.2-0.1-0.4-0.3-0.5-0.5s-0.2-0.5-0.2-0.9
			c0-0.7,0.2-1.1,0.6-1.5c0.4-0.3,1-0.5,1.8-0.5c0.5,0,0.9,0.1,1.3,0.2c0.4,0.1,0.8,0.3,1.2,0.6l-0.7,0.9c-0.3-0.2-0.6-0.3-0.9-0.4
			c-0.3-0.1-0.6-0.1-0.9-0.1c-0.4,0-0.7,0.1-0.9,0.2s-0.3,0.4-0.3,0.6c0,0.2,0.1,0.3,0.2,0.4s0.3,0.1,0.6,0.2s0.5,0,0.8,0.1
			c0.3,0,0.5,0,0.8,0.1c0.3,0,0.5,0.1,0.7,0.2c0.2,0.1,0.4,0.3,0.5,0.5s0.2,0.6,0.2,1c0,0.7-0.2,1.2-0.6,1.5
			C159.9,161.1,159.2,161.3,158.4,161.3z"/>
		<path class="st7" d="M164.5,161.3c-0.8,0-1.3-0.2-1.7-0.5c-0.4-0.3-0.6-0.8-0.6-1.4c0-0.6,0.2-1.1,0.5-1.4s0.9-0.5,1.6-0.5h1.8
			l0.1,1h-1.8c-0.3,0-0.5,0.1-0.7,0.2s-0.2,0.4-0.2,0.6c0,0.3,0.1,0.5,0.3,0.7c0.2,0.2,0.5,0.2,0.9,0.2c0.5,0,0.8,0,1-0.1
			c0.2-0.1,0.3-0.3,0.3-0.5l0.1,0.9c-0.1,0.2-0.2,0.3-0.4,0.4c-0.2,0.1-0.3,0.2-0.5,0.2C165,161.3,164.7,161.3,164.5,161.3z
			 M166,161.2v-3.9c0-0.4-0.1-0.7-0.3-0.9s-0.5-0.3-0.9-0.3c-0.2,0-0.5,0-0.7,0.1s-0.4,0.2-0.6,0.3l-0.9-0.6
			c0.2-0.3,0.5-0.5,0.9-0.7c0.4-0.2,0.8-0.2,1.3-0.2c0.8,0,1.4,0.2,1.8,0.6c0.4,0.4,0.6,1,0.6,1.7v4H166z"/>
		<path class="st7" d="M168.5,156.1V155h2.8v1.1H168.5z M170.6,161.2c-0.5,0-0.9-0.1-1.1-0.4s-0.3-0.7-0.3-1.2v-6.4h1.2v6.4
			c0,0.1,0,0.3,0.1,0.3c0.1,0.1,0.1,0.1,0.3,0.1h0.6v1.2H170.6z"/>
		<path class="st7" d="M172.9,153.8v-1.2h1.2v1.2H172.9z M172.9,161.2V155h1.2v6.2H172.9z"/>
		<path class="st7" d="M178.5,161.3c-0.9,0-1.5-0.2-2-0.7c-0.5-0.5-0.7-1.2-0.7-2v-0.7c0-0.9,0.2-1.6,0.7-2.1
			c0.5-0.5,1.1-0.8,1.9-0.8c0.8,0,1.4,0.3,1.8,0.9c0.4,0.6,0.6,1.4,0.6,2.4v0.4h-4.2v-1h3c0-0.5-0.2-0.9-0.4-1.2s-0.5-0.4-0.9-0.4
			c-0.5,0-0.8,0.2-1.1,0.5c-0.3,0.3-0.4,0.7-0.4,1.3v0.8c0,0.5,0.1,0.9,0.4,1.2c0.3,0.3,0.7,0.4,1.1,0.4c0.2,0,0.5,0,0.7-0.1
			c0.2-0.1,0.5-0.2,0.6-0.4l0.8,0.8c-0.3,0.3-0.6,0.5-1,0.7C179.3,161.2,178.9,161.3,178.5,161.3z"/>
	</g>
	<g>
		<path class="st5" d="M190.3,132l-0.9-4.1l1-0.6l1,5.9l-0.7,0.4l-4.7-3.7l1-0.6L190.3,132z"/>
		<path class="st5" d="M196.1,130.5c-0.7,0.4-1.3,0.5-1.9,0.4s-1.1-0.6-1.5-1.3l-0.3-0.5c-0.4-0.7-0.6-1.4-0.5-2
			c0.1-0.6,0.5-1.1,1.1-1.5c0.6-0.4,1.2-0.4,1.8-0.2c0.6,0.2,1.1,0.8,1.6,1.6l0.2,0.3l-3.2,1.9l-0.5-0.8l2.3-1.4
			c-0.3-0.4-0.5-0.6-0.8-0.7c-0.3-0.1-0.6-0.1-0.9,0.1c-0.4,0.2-0.6,0.5-0.6,0.8c-0.1,0.4,0,0.7,0.3,1.2l0.4,0.6
			c0.2,0.4,0.5,0.6,0.9,0.7c0.3,0.1,0.7,0,1.1-0.2c0.2-0.1,0.4-0.3,0.5-0.5c0.1-0.2,0.2-0.4,0.3-0.6l1,0.3c-0.1,0.4-0.3,0.7-0.5,1
			C196.7,130.1,196.4,130.4,196.1,130.5z"/>
		<path class="st5" d="M199.2,128.6l-2.9-4.8l0.9-0.6l2.8,4.8L199.2,128.6z M199.6,123.4c-0.1-0.1-0.3-0.1-0.5,0
			c-0.2,0-0.3,0.1-0.5,0.2c-0.3,0.2-0.5,0.4-0.5,0.7s0,0.5,0.2,0.8l-0.6-0.9c0-0.4,0-0.7,0.2-1c0.1-0.3,0.4-0.5,0.6-0.7
			c0.2-0.1,0.4-0.2,0.6-0.3c0.2,0,0.4,0,0.6,0L199.6,123.4z"/>
		<path class="st5" d="M203.2,126.2l-4-6.7l0.9-0.6l4,6.7L203.2,126.2z M205.4,125c-0.3,0.2-0.6,0.3-0.9,0.2c-0.3,0-0.6-0.1-0.9-0.3
			l-0.5-1c0.1,0.2,0.3,0.4,0.4,0.5c0.2,0.1,0.3,0.1,0.5,0.1c0.2,0,0.4-0.1,0.6-0.2c0.3-0.2,0.5-0.4,0.6-0.7c0.1-0.3,0-0.6-0.2-1
			l-0.6-1c-0.2-0.4-0.5-0.6-0.7-0.7c-0.3-0.1-0.6,0-0.9,0.1c-0.2,0.1-0.3,0.3-0.4,0.4c-0.1,0.2-0.1,0.3-0.1,0.5
			c0,0.2,0.1,0.4,0.2,0.6l-0.6-0.9c0-0.4,0-0.7,0.2-1c0.1-0.3,0.4-0.5,0.6-0.7c0.5-0.3,1-0.4,1.5-0.2s0.9,0.6,1.3,1.2l0.6,1
			c0.4,0.6,0.5,1.2,0.4,1.7C206.2,124.3,205.9,124.7,205.4,125z"/>
		<path class="st5" d="M204.9,117.4l-0.6-0.9l0.9-0.6l0.6,0.9L204.9,117.4z M208.4,123.2l-2.8-4.8l0.9-0.6l2.8,4.8L208.4,123.2z"/>
		<path class="st5" d="M210.7,121.8l-2.8-4.8l0.9-0.6l2.8,4.8L210.7,121.8z M213.6,120l-1.7-2.9c-0.2-0.3-0.4-0.5-0.7-0.6
			c-0.3-0.1-0.6,0-0.9,0.2c-0.3,0.2-0.5,0.4-0.6,0.7c-0.1,0.3,0,0.5,0.2,0.8l-0.6-0.9c0-0.4,0-0.7,0.2-1c0.1-0.3,0.4-0.5,0.7-0.7
			c0.5-0.3,1-0.4,1.5-0.2c0.5,0.2,0.9,0.6,1.3,1.2l1.7,2.9L213.6,120z"/>
		<path class="st5" d="M217.6,117.8c-0.5,0.3-1,0.4-1.5,0.2s-0.9-0.6-1.3-1.2l-0.6-1.1c-0.4-0.6-0.5-1.2-0.4-1.7
			c0.1-0.5,0.4-0.9,0.9-1.2c0.3-0.2,0.6-0.2,0.9-0.2c0.3,0,0.6,0.1,0.9,0.3l0.5,1c-0.1-0.2-0.3-0.4-0.4-0.5
			c-0.2-0.1-0.3-0.1-0.5-0.1c-0.2,0-0.4,0.1-0.6,0.2c-0.3,0.2-0.5,0.4-0.5,0.7c-0.1,0.3,0,0.6,0.2,1l0.6,1c0.2,0.3,0.5,0.6,0.7,0.7
			c0.3,0.1,0.6,0,0.9-0.1c0.2-0.1,0.3-0.3,0.4-0.4c0.1-0.2,0.1-0.3,0.1-0.5c0-0.2-0.1-0.4-0.2-0.6l0.7,1c0,0.3,0,0.5-0.1,0.8
			C218.1,117.3,217.9,117.6,217.6,117.8z M218.7,117l-4-6.7l0.9-0.6l4,6.7L218.7,117z"/>
		<path class="st5" d="M217.7,109.8l-0.6-0.9l0.9-0.6l0.6,0.9L217.7,109.8z M221.1,115.6l-2.8-4.8l0.9-0.6l2.9,4.8L221.1,115.6z"/>
		<path class="st5" d="M223.5,114.2l-2.8-4.8l0.9-0.6l2.8,4.8L223.5,114.2z M226.4,112.4l-1.7-2.9c-0.2-0.3-0.4-0.5-0.7-0.6
			c-0.3-0.1-0.6,0-0.9,0.2c-0.3,0.2-0.5,0.4-0.6,0.7c-0.1,0.3,0,0.5,0.2,0.8l-0.6-0.9c0-0.4,0-0.7,0.2-1s0.4-0.5,0.7-0.7
			c0.5-0.3,1-0.4,1.5-0.2c0.5,0.2,0.9,0.6,1.3,1.2l1.7,2.9L226.4,112.4z"/>
		<path class="st5" d="M230.3,110.2c-0.5,0.3-1,0.4-1.5,0.2s-0.9-0.6-1.3-1.2l-0.6-1.1c-0.4-0.6-0.5-1.2-0.4-1.7
			c0.1-0.5,0.4-0.9,0.9-1.2c0.3-0.2,0.6-0.2,0.9-0.2c0.3,0,0.6,0.1,0.9,0.3l0.5,1c-0.1-0.2-0.3-0.4-0.4-0.5
			c-0.2-0.1-0.3-0.1-0.5-0.1c-0.2,0-0.4,0.1-0.6,0.2c-0.3,0.2-0.5,0.4-0.6,0.7c-0.1,0.3,0,0.6,0.2,1l0.6,1c0.2,0.3,0.5,0.6,0.7,0.7
			c0.3,0.1,0.6,0,0.9-0.1c0.2-0.1,0.3-0.3,0.4-0.4c0.1-0.2,0.1-0.3,0.1-0.5c0-0.2-0.1-0.4-0.2-0.6l0.7,1c0,0.3,0,0.5-0.1,0.8
			C230.9,109.8,230.7,110,230.3,110.2z M231.5,112c-0.4,0.2-0.7,0.3-1.1,0.4c-0.4,0-0.7,0-1-0.2l0.3-1c0.2,0.1,0.4,0.1,0.7,0.1
			c0.2,0,0.4-0.1,0.6-0.2c0.4-0.2,0.6-0.5,0.7-0.8c0.1-0.3,0-0.7-0.2-1l-2.8-4.8l0.9-0.6l2.8,4.6c0.4,0.7,0.5,1.3,0.4,1.9
			C232.6,111.1,232.2,111.6,231.5,112z"/>
	</g>
	<path class="st3" d="M94.8,73.3c10.2,5.7,18.8,13.1,25.7,21.7c-15.8-4.9-32.4-5.2-47.9-1.3c-3.6,0.9-7.1,2-10.6,3.4
		c-18.4,7.2-34.5,20.6-44.9,39.3c-1.4,2.5-2.7,5.1-3.8,7.7l1.3-42.2l1-32.1c1.3-0.6,2.6-1.1,3.9-1.6c2.5-1,5.1-1.9,7.7-2.6
		c11.4-3.3,23.5-4.3,35.5-2.8C73.6,64.1,84.5,67.5,94.8,73.3z"/>
	<g>
		<path class="st6" d="M4.5,93.2c-0.2,0.1-0.3,0.3-0.5,0.7c-0.1,0.3-0.2,0.7-0.3,1.1c-0.1,0.4-0.1,0.8-0.1,1.3
			c0,0.4,0.1,0.8,0.2,1.1c0.1,0.2,0.3,0.4,0.4,0.4c0.2,0,0.4,0,0.6-0.1c0.2-0.1,0.5-0.3,0.7-0.5C5.8,97,6,96.8,6.2,96.6
			c0.2-0.2,0.4-0.4,0.6-0.5s0.4-0.3,0.7-0.4c0.1,0.1,0.1,0.2,0.1,0.3c0,0.1,0,0.2,0,0.3c-0.3,0.4-0.7,0.8-1,1.2
			c-0.4,0.4-0.8,0.7-1.3,1c-0.1,0.1-0.3,0.1-0.5,0.2c-0.2,0-0.4,0-0.6,0c-0.2,0-0.4-0.1-0.5-0.2c-0.2-0.1-0.3-0.2-0.4-0.4
			c-0.2-0.4-0.3-0.7-0.4-1.1c-0.1-0.4-0.1-0.8-0.1-1.2c0-0.4,0.1-0.8,0.2-1.2c0.1-0.4,0.3-0.8,0.5-1.1l0,0c0.1-0.1,0.2-0.3,0.3-0.4
			c0.1-0.1,0.3-0.3,0.4-0.3c0.1-0.1,0.3-0.1,0.4-0.1c0.1,0,0.3,0.2,0.4,0.4c0,0.1,0.1,0.2,0.2,0.4c0.1,0.2,0.1,0.3,0,0.4
			c0,0.1-0.1,0.2-0.2,0.2c0,0-0.1,0.1-0.1,0.1L4.5,93.2z"/>
		<path class="st6" d="M7.6,95.9c0,0,0-0.1-0.1-0.2c0-0.1-0.1-0.2-0.1-0.2c0-0.7,0-1.4,0.2-2.2c0.2-0.7,0.4-1.4,0.7-2
			c0,0,0,0,0.1-0.1c0,0,0.1,0,0.1-0.1c0.2-0.1,0.4-0.2,0.6-0.1c0.2,0,0.4,0.1,0.5,0.2c0.2,0.1,0.3,0.2,0.4,0.4s0.2,0.3,0.3,0.5
			c0.2,0.3,0.3,0.7,0.3,1.1s0,0.8-0.1,1.3c-0.1,0.4-0.3,0.8-0.5,1.1c-0.2,0.3-0.5,0.6-0.9,0.8s-0.6,0.2-0.9,0.1
			C7.9,96.5,7.7,96.3,7.6,95.9z M8.5,95.3c0,0.1,0.1,0.1,0.2,0.1c0.1,0,0.2,0,0.2-0.1c0.2-0.1,0.4-0.3,0.5-0.5
			c0.1-0.2,0.2-0.4,0.3-0.7c0.1-0.2,0.1-0.5,0.1-0.7c0-0.2-0.1-0.5-0.2-0.7c0-0.1-0.1-0.2-0.2-0.3c-0.1-0.1-0.1-0.2-0.2-0.3
			c-0.1-0.1-0.2-0.1-0.3-0.1c-0.1,0-0.2,0-0.4,0.2c-0.1,0.1-0.2,0.3-0.2,0.5s-0.1,0.5-0.1,0.9s0,0.6,0,0.9C8.3,95,8.4,95.2,8.5,95.3
			z"/>
		<path class="st6" d="M12.1,94.3c0-0.1-0.1-0.1-0.1-0.2c0,0,0-0.1,0-0.1s0-0.1,0-0.1c0-0.1,0-0.1,0-0.2c0-0.1,0-0.4,0.1-0.8
			s0.1-0.8,0.1-1.2c0-0.4,0.1-0.8,0.1-1.2c0-0.4,0.1-0.6,0.1-0.8c0,0,0,0,0.1,0c0,0,0.1,0,0.1,0c0,0,0,0,0.1,0s0.1,0,0.1,0
			c0,0,0,0,0.1,0c0,0,0.1,0,0.2,0.1c0.1,0,0.1,0,0.1,0.1c0,0,0.1,0,0.1,0c0.1,0,0.1-0.1,0.2-0.2c0.1-0.1,0.1-0.2,0.2-0.3
			c0.1-0.1,0.1-0.2,0.2-0.3c0.1-0.1,0.1-0.2,0.2-0.2c0.1-0.1,0.2-0.1,0.3-0.1c0.1,0,0.2,0,0.3,0.1c0.1,0,0.2,0.1,0.3,0.2
			c0.1,0.1,0.1,0.2,0.2,0.2c0.1,0.2,0.2,0.4,0.2,0.6c0,0.2,0.1,0.4,0.1,0.6c0,0.2,0,0.4,0.1,0.6c0,0.2,0.1,0.4,0.2,0.6
			c0.1,0.2,0.2,0.3,0.3,0.4c0.1,0.1,0.2,0,0.4-0.1c0.2-0.1,0.4-0.2,0.6-0.4c0.2-0.2,0.4-0.3,0.6-0.4c0.1,0.2,0.1,0.4,0.1,0.6
			c-0.1,0.2-0.1,0.4-0.3,0.5c-0.1,0.2-0.3,0.3-0.5,0.4c-0.2,0.1-0.4,0.2-0.5,0.3c-0.3,0.2-0.6,0.2-0.8,0.1c-0.2-0.1-0.4-0.3-0.6-0.6
			c-0.1-0.2-0.2-0.4-0.2-0.6s0-0.4,0-0.6s0-0.4,0-0.6c0-0.2-0.1-0.4-0.2-0.6c0,0-0.1-0.1-0.1-0.2c-0.1-0.1-0.1-0.1-0.2,0
			c-0.3,0.1-0.5,0.3-0.6,0.6s-0.2,0.6-0.3,0.9c0,0.3-0.1,0.7-0.1,1.1c0,0.4,0,0.7,0,1c0,0.3,0,0.6,0,0.8c0,0.2-0.1,0.4-0.2,0.4
			c-0.2,0.1-0.3,0.1-0.5,0C12.3,94.5,12.2,94.4,12.1,94.3z"/>
		<path class="st6" d="M17.3,91.4c0,0,0-0.1,0-0.1c0,0,0-0.1,0-0.1c-0.1-0.3-0.2-0.6-0.4-1c-0.2-0.4-0.3-0.8-0.4-1.1
			c-0.1-0.4-0.3-0.8-0.5-1.4l0.2-0.5c0.2,0,0.3,0,0.4,0c0.1,0,0.2,0.1,0.2,0.2c0.1,0.1,0.1,0.2,0.2,0.3s0.1,0.2,0.1,0.3
			c0.2,0.3,0.3,0.7,0.4,1c0.1,0.4,0.2,0.7,0.4,1c0,0,0,0.1,0.1,0.1c0,0.1,0.1,0.1,0.1,0.1l1.4-4.7c0,0,0,0,0.1,0c0,0,0.1,0,0.1,0
			c0.1,0,0.2-0.1,0.3-0.1c0.1,0,0.2,0,0.2,0.2c0,0,0,0,0,0c0,0,0,0,0,0l0,0c0,0.1,0,0.2-0.1,0.4c0,0.2-0.1,0.4-0.1,0.6
			c0,0.2-0.1,0.4-0.1,0.7s-0.1,0.3-0.1,0.4c-0.1,0.2-0.1,0.5-0.2,0.9c-0.1,0.3-0.1,0.7-0.2,1c-0.1,0.3-0.2,0.7-0.3,1
			c-0.1,0.3-0.2,0.6-0.4,0.9c0,0-0.1,0.1-0.1,0.2c-0.1,0.1-0.1,0.1-0.1,0.1c-0.1,0-0.2,0.1-0.3,0c-0.1,0-0.2,0-0.3-0.1
			s-0.2-0.1-0.3-0.2C17.4,91.6,17.3,91.5,17.3,91.4z"/>
		<path class="st6" d="M22.3,89.1c-0.3-0.2-0.5-0.5-0.6-0.8c-0.1-0.3-0.2-0.6-0.2-0.9c0-0.3,0-0.6,0.1-1c0.1-0.3,0.2-0.6,0.3-0.9
			c0.1-0.3,0.3-0.5,0.5-0.7c0.2-0.2,0.4-0.3,0.5-0.4c0.2-0.1,0.3-0.1,0.5,0c0.2,0.1,0.3,0.2,0.4,0.5c0.2,0.3,0.2,0.6,0.1,1
			c-0.1,0.3-0.2,0.7-0.3,1c-0.1,0.3-0.3,0.6-0.4,0.8C23,87.9,23,88.1,23,88.2c0,0.1,0.1,0.1,0.2,0.1c0.1,0,0.2,0,0.3-0.1
			s0.2-0.1,0.4-0.1c0.1,0,0.2-0.1,0.3-0.1c0.7-0.5,1.2-0.9,1.6-1.2c0.4-0.2,0.6-0.3,0.7-0.3c0.1,0,0.1,0.1,0,0.2
			c-0.1,0.2-0.2,0.4-0.5,0.6c-0.2,0.2-0.5,0.5-0.8,0.8c-0.3,0.3-0.7,0.5-1,0.7c-0.4,0.2-0.7,0.3-1,0.4
			C22.8,89.3,22.5,89.2,22.3,89.1z M23,85.2c-0.2,0.1-0.3,0.2-0.4,0.4c-0.1,0.2-0.2,0.3-0.2,0.5c-0.1,0.2-0.1,0.4-0.1,0.6
			c0,0.2,0,0.4,0,0.5c0,0,0,0,0,0l0,0c0.1-0.1,0.2-0.2,0.3-0.3c0.1-0.2,0.2-0.4,0.2-0.6c0.1-0.2,0.1-0.4,0.1-0.6
			C23.1,85.5,23.1,85.3,23,85.2z"/>
		<path class="st6" d="M29,85.3c-0.1-0.2-0.2-0.5-0.2-0.8c0-0.3,0-0.5,0-0.8c0-0.2,0-0.5,0.1-0.7s0-0.5-0.1-0.7c0,0-0.1-0.1-0.1-0.2
			c0-0.1-0.1-0.1-0.1-0.2c0-0.1-0.1-0.1-0.2-0.1c-0.1,0-0.1,0-0.2,0c0,0,0,0,0,0c0,0,0,0,0,0c0,0.2-0.1,0.5-0.1,0.7
			c-0.1,0.3-0.1,0.5-0.2,0.8c-0.1,0.3-0.2,0.5-0.3,0.8c-0.1,0.3-0.2,0.5-0.2,0.7c-0.1,0.1-0.1,0.3-0.2,0.6c-0.1,0.2-0.2,0.5-0.3,0.7
			c-0.1,0.2-0.2,0.4-0.2,0.6c-0.1,0.2-0.1,0.3-0.1,0.3L25.6,87c0.1,0,0.1-0.1,0.2-0.2c0.1-0.1,0.1-0.1,0.1-0.2
			c0.3-0.6,0.6-1.2,0.8-1.8c0.2-0.6,0.3-1.3,0.5-2c0,0,0-0.1,0-0.3c0-0.2,0-0.3,0-0.5c0-0.2,0-0.4,0-0.6c0-0.2,0-0.3,0-0.5
			c0-0.1,0-0.2,0-0.3s0-0.1,0-0.2c0,0,0-0.1,0-0.1c0,0,0.1-0.1,0.2-0.1c0,0,0.1,0,0.1,0c0.1,0,0.1,0,0.1,0c0.2,0.2,0.4,0.3,0.6,0.4
			c0.2,0.1,0.3,0.3,0.4,0.4c0.1,0.1,0.3,0.3,0.4,0.4s0.2,0.3,0.3,0.5c0,0.3,0,0.7,0.1,1s0,0.7,0.1,1c0,0.3,0.1,0.6,0.2,0.8
			c0.1,0.2,0.2,0.4,0.4,0.4s0.4,0,0.7-0.1c0.3-0.1,0.6-0.4,1-0.8c0.2,0,0.2,0.1,0.2,0.2s-0.2,0.3-0.4,0.5c-0.2,0.2-0.4,0.4-0.6,0.6
			s-0.4,0.3-0.6,0.4C30.1,86,29.9,86,29.8,86c-0.1,0-0.2,0-0.4-0.1c-0.1-0.1-0.2-0.1-0.3-0.2C29.1,85.6,29,85.5,29,85.3z"/>
		<path class="st6" d="M30.8,83.9c-0.1-0.2-0.1-0.3-0.1-0.4s0.1-0.3,0.3-0.3c0,0,0.1,0,0.1-0.1s0.1,0,0.1,0c0.2,0.4,0.4,0.6,0.6,0.8
			c0.2,0.1,0.5,0.1,0.9-0.1c0.3-0.1,0.6-0.3,0.8-0.6c0.2-0.2,0.4-0.5,0.6-0.8c0.1-0.3,0.2-0.6,0.2-0.9c0-0.3-0.1-0.6-0.2-1
			c-0.1-0.2-0.2-0.3-0.4-0.3c-0.2,0-0.4,0-0.5,0c-0.2,0-0.4,0.1-0.5,0.1c-0.2,0-0.3-0.1-0.4-0.2c-0.1-0.2-0.1-0.4,0.1-0.7
			c0.1-0.3,0.3-0.6,0.6-0.9c0.2-0.3,0.5-0.5,0.8-0.8c0.3-0.2,0.5-0.4,0.6-0.5c0.1,0.2,0.2,0.4,0.1,0.6c-0.1,0.1-0.1,0.3-0.3,0.4
			c-0.1,0.1-0.2,0.3-0.4,0.4c-0.1,0.1-0.2,0.3-0.2,0.5c0.2,0,0.3,0.1,0.5,0.1c0.1,0,0.2,0.1,0.3,0.2s0.2,0.2,0.3,0.3
			c0.1,0.1,0.2,0.2,0.2,0.4c0.2,0.4,0.3,0.9,0.3,1.3c0,0.4-0.1,0.9-0.3,1.3c-0.2,0.4-0.4,0.8-0.7,1.1c-0.3,0.3-0.7,0.6-1,0.8
			c-0.2,0.1-0.4,0.2-0.7,0.2c-0.2,0-0.4,0.1-0.7,0c-0.2,0-0.4-0.1-0.6-0.2C31.1,84.3,30.9,84.1,30.8,83.9z"/>
		<path class="st6" d="M37,81.5c-0.2-0.5-0.2-1-0.2-1.5c0-0.5,0.1-1,0.2-1.4s0.3-0.8,0.5-1.1c0.2-0.3,0.5-0.6,0.7-0.8
			s0.5-0.3,0.8-0.4c0.3,0,0.6,0,0.8,0.2c0.1,0.2,0.1,0.4,0.1,0.6c0,0.2,0,0.4,0,0.7c0,0.2,0,0.4,0,0.7c0,0.2,0.1,0.4,0.2,0.6
			c0.1,0.2,0.2,0.4,0.4,0.4c0.2,0.1,0.4,0.1,0.6-0.1c0.2-0.1,0.4-0.2,0.5-0.4c0.2-0.1,0.3-0.3,0.5-0.4c0,0,0.1,0,0.2-0.1
			c0.1,0,0.1-0.1,0.2-0.1c0,0.2-0.1,0.4-0.2,0.5c-0.1,0.2-0.2,0.3-0.4,0.5s-0.3,0.3-0.5,0.4c-0.2,0.1-0.3,0.2-0.5,0.3
			c-0.1,0.1-0.3,0.1-0.4,0.1c-0.1,0-0.3,0-0.4-0.1c-0.1-0.1-0.3-0.2-0.4-0.3c-0.1-0.1-0.2-0.2-0.3-0.4c-0.1,0.2-0.1,0.4-0.2,0.6
			c-0.1,0.2-0.1,0.4-0.2,0.6c-0.1,0.2-0.2,0.4-0.4,0.6c-0.1,0.2-0.3,0.3-0.5,0.4c-0.2,0.1-0.4,0.1-0.7,0
			C37.3,81.8,37.1,81.7,37,81.5z M37.6,80.7c0,0.1,0.1,0.1,0.1,0.2S37.9,81,38,81c0.2-0.2,0.4-0.4,0.5-0.7c0.2-0.3,0.3-0.6,0.4-1
			c0.1-0.3,0.2-0.7,0.2-1c0-0.3,0-0.6-0.1-0.9c0,0,0,0,0-0.1c0,0,0-0.1,0-0.1c-0.3,0.1-0.5,0.3-0.8,0.6c-0.2,0.3-0.4,0.5-0.5,0.9
			c-0.1,0.3-0.2,0.6-0.2,1C37.4,80.1,37.5,80.4,37.6,80.7z"/>
		<path class="st6" d="M42,78.5c-0.1-0.2-0.2-0.5-0.2-0.8c0-0.3,0-0.6,0-0.9c0-0.3,0-0.6,0-0.9s0-0.6,0-0.8
			c-0.1,0.2-0.2,0.3-0.3,0.4c-0.1,0.1-0.2,0.1-0.4,0.2c0,0-0.1,0-0.2,0.1c-0.1,0-0.1,0.1-0.2,0.1c0-0.2,0-0.4,0-0.6s0.1-0.4,0.3-0.6
			s0.2-0.4,0.4-0.5c0.1-0.2,0.3-0.3,0.4-0.4c0.1-0.5,0.1-1,0-1.5c0-0.5-0.1-0.9-0.1-1.4c0-0.5,0-0.9,0-1.3c0-0.4,0.2-0.9,0.4-1.4
			l0.3,0.4l0.3,4.3c0.1-0.1,0.2-0.1,0.3-0.2c0.1-0.1,0.2-0.2,0.4-0.3c0.1-0.1,0.2-0.2,0.4-0.3c0.1-0.1,0.2-0.2,0.3-0.2
			c0,0,0,0,0.1,0s0.1,0,0.1-0.1c0.1-0.1,0.2-0.1,0.3-0.1c0.1,0,0.2,0.1,0.3,0.2c-0.5,0.4-0.9,0.9-1.2,1.3c-0.4,0.4-0.6,0.8-0.8,1.3
			c-0.2,0.5-0.3,1-0.3,1.5c0,0.5,0.2,1.2,0.4,1.9c0.1,0.1,0.1,0.3,0.2,0.4c0.1,0.1,0.2,0.1,0.4,0.1c0.2-0.1,0.3-0.2,0.5-0.4
			c0.1-0.2,0.2-0.3,0.4-0.5c0.1-0.2,0.2-0.3,0.4-0.5c0.1-0.2,0.3-0.3,0.5-0.4c0.1,0.2,0.1,0.4,0,0.7s-0.2,0.5-0.4,0.7
			c-0.2,0.2-0.4,0.5-0.6,0.7c-0.2,0.2-0.4,0.3-0.6,0.4c-0.2,0.1-0.3,0.1-0.5,0.1s-0.3,0-0.5-0.1c-0.1-0.1-0.3-0.2-0.4-0.3
			S42,78.7,42,78.5z"/>
		<path class="st6" d="M45.4,77.3c-0.1-0.1-0.1-0.2-0.1-0.3c0-0.1,0-0.2,0-0.4c0-0.1,0-0.3,0.1-0.6c0-0.3,0.1-0.6,0.1-1
			c0-0.3,0.1-0.7,0.1-1c0-0.3,0.1-0.5,0.1-0.6c0-0.1,0-0.2,0.1-0.3c0,0,0.1-0.1,0.2-0.1c0.1,0,0.2-0.1,0.2-0.1c0.1,0,0.2,0,0.3,0.1
			c0,0.3,0,0.7-0.1,1c-0.1,0.3-0.1,0.7-0.2,1c-0.1,0.3-0.1,0.7-0.1,1c0,0.3,0.1,0.6,0.2,0.9c0,0,0.1,0,0.2-0.1
			c0.1,0,0.2-0.1,0.2-0.1c0.1,0,0.2-0.1,0.2-0.1c0.1,0,0.1-0.1,0.2-0.1c0,0,0.1-0.1,0.2-0.2c0.1-0.1,0.2-0.2,0.3-0.3
			c0.1-0.1,0.2-0.2,0.3-0.3c0.1-0.1,0.2-0.2,0.2-0.2c0,0,0,0,0,0.1c0,0,0,0.1,0,0.1c0.1,0.2,0.1,0.3,0,0.5c-0.1,0.2-0.2,0.4-0.4,0.5
			c-0.2,0.2-0.4,0.3-0.5,0.4c-0.2,0.1-0.4,0.2-0.5,0.3c-0.1,0.1-0.3,0.1-0.4,0.1c-0.1,0-0.3,0-0.4,0c-0.1,0-0.3-0.1-0.4-0.1
			C45.5,77.5,45.4,77.4,45.4,77.3z M45.3,68.3c0.1-0.1,0.2-0.1,0.3-0.1c0.1,0,0.2-0.1,0.3-0.1c0.1,0,0.2,0,0.2,0.1s0.1,0.1,0.2,0.2
			c0,0,0.1,0.1,0.1,0.2c0,0.1,0,0.1,0.1,0.2c0,0.1,0,0.1,0,0.2c0,0.1-0.1,0.1-0.1,0.1c-0.1,0.1-0.2,0.1-0.3,0
			c-0.1,0-0.2-0.1-0.3-0.2s-0.2-0.2-0.2-0.3S45.4,68.4,45.3,68.3z"/>
		<path class="st6" d="M48.3,75.5c0,0,0-0.1-0.1-0.2c0-0.1-0.1-0.2-0.1-0.2c0-0.7,0-1.4,0.2-2.2c0.2-0.7,0.4-1.4,0.7-2
			c0,0,0,0,0.1-0.1c0,0,0.1,0,0.1-0.1c0.2-0.1,0.4-0.2,0.6-0.1c0.2,0,0.4,0.1,0.5,0.2c0.2,0.1,0.3,0.2,0.4,0.4
			c0.1,0.2,0.2,0.3,0.3,0.5c0.2,0.3,0.3,0.7,0.3,1.1c0,0.4,0,0.8-0.1,1.3s-0.3,0.8-0.5,1.1c-0.2,0.3-0.5,0.6-0.9,0.8
			c-0.3,0.2-0.6,0.2-0.9,0.1S48.5,75.8,48.3,75.5z M49.2,74.9c0,0.1,0.1,0.1,0.2,0.1c0.1,0,0.2,0,0.2-0.1c0.2-0.1,0.4-0.3,0.5-0.5
			c0.1-0.2,0.2-0.4,0.3-0.7c0.1-0.2,0.1-0.5,0.1-0.7c0-0.2-0.1-0.5-0.2-0.7c0-0.1-0.1-0.2-0.2-0.3S50.1,72,50,71.9
			c-0.1-0.1-0.2-0.1-0.3-0.1c-0.1,0-0.2,0-0.4,0.2c-0.1,0.1-0.2,0.3-0.2,0.5C49,72.7,49,73,49,73.3s0,0.6,0,0.9
			C49.1,74.5,49.1,74.7,49.2,74.9z"/>
		<path class="st6" d="M52.8,73.9c0-0.1-0.1-0.1-0.1-0.2c0,0,0-0.1,0-0.1c0,0,0-0.1,0-0.1c0-0.1,0-0.1,0-0.2c0-0.1,0-0.4,0.1-0.8
			s0.1-0.8,0.1-1.2c0-0.4,0.1-0.8,0.1-1.2c0-0.4,0.1-0.6,0.1-0.8c0,0,0,0,0.1,0c0,0,0.1,0,0.1,0c0,0,0,0,0.1,0s0.1,0,0.1,0
			c0,0,0,0,0.1,0c0,0,0.1,0,0.2,0.1c0.1,0,0.1,0,0.2,0.1c0,0,0.1,0,0.1,0c0.1,0,0.1-0.1,0.2-0.2c0.1-0.1,0.1-0.2,0.2-0.3
			c0.1-0.1,0.1-0.2,0.2-0.3c0.1-0.1,0.1-0.2,0.2-0.2c0.1-0.1,0.2-0.1,0.3-0.1c0.1,0,0.2,0,0.3,0.1c0.1,0,0.2,0.1,0.3,0.2
			c0.1,0.1,0.1,0.2,0.2,0.2c0.1,0.2,0.2,0.4,0.2,0.6c0,0.2,0.1,0.4,0.1,0.6c0,0.2,0,0.4,0.1,0.6c0,0.2,0.1,0.4,0.2,0.6
			c0.1,0.2,0.2,0.3,0.3,0.4c0.1,0.1,0.2,0,0.4-0.1c0.2-0.1,0.4-0.2,0.6-0.4c0.2-0.2,0.4-0.3,0.6-0.4c0.1,0.2,0.1,0.4,0.1,0.6
			c-0.1,0.2-0.1,0.4-0.3,0.5c-0.1,0.2-0.3,0.3-0.5,0.4c-0.2,0.1-0.4,0.2-0.5,0.3c-0.3,0.2-0.6,0.2-0.8,0.1c-0.2-0.1-0.4-0.3-0.6-0.6
			c-0.1-0.2-0.2-0.4-0.2-0.6c0-0.2,0-0.4,0-0.6c0-0.2,0-0.4,0-0.6c0-0.2-0.1-0.4-0.2-0.6c0,0-0.1-0.1-0.1-0.2
			c-0.1-0.1-0.1-0.1-0.2,0c-0.3,0.1-0.5,0.3-0.6,0.6c-0.1,0.3-0.2,0.6-0.3,0.9c0,0.3-0.1,0.7-0.1,1.1c0,0.4,0,0.7,0,1
			c0,0.3,0,0.6,0,0.8c0,0.2-0.1,0.4-0.2,0.4c-0.2,0.1-0.3,0.1-0.5,0C53,74.1,52.9,74,52.8,73.9z"/>
		<path class="st6" d="M11.5,118.3C11.5,118.3,11.5,118.3,11.5,118.3c0-0.1,0-0.1,0-0.1c0,0,0-0.1,0-0.1c0-0.1,0-0.1,0-0.2
			c0-0.1,0-0.1,0-0.2c0-0.1,0-0.1,0-0.1c0-0.1,0-0.4,0-0.7c0-0.3,0-0.7,0-1c0-0.4,0-0.8,0-1.2s0-0.8,0-1.2c0-0.4,0-0.7,0-1
			c0-0.3,0-0.5,0-0.7c0-0.2,0.1-0.5,0.1-0.8c0.1-0.3,0.2-0.7,0.3-1c0.1-0.4,0.3-0.7,0.4-1.1c0.2-0.4,0.3-0.7,0.5-1
			c0.2-0.3,0.4-0.6,0.6-0.8c0.2-0.2,0.4-0.4,0.6-0.5c0.3-0.1,0.5-0.2,0.7-0.2c0.2,0,0.3,0.2,0.5,0.6c0.2,0.4,0.3,0.7,0.3,1.1
			c0,0.4,0,0.8-0.1,1.3c-0.1,0.4-0.2,0.8-0.4,1.2c-0.2,0.4-0.4,0.8-0.7,1.1c-0.3,0.3-0.5,0.6-0.9,0.9c-0.3,0.2-0.7,0.4-1.1,0.5
			l-0.1,0.2l0.4,4.8c0,0.1,0,0.2-0.1,0.2c-0.1,0.1-0.2,0.1-0.3,0.2c-0.1,0.1-0.2,0.1-0.4,0.1C11.7,118.5,11.6,118.5,11.5,118.3z
			 M14.2,109.5c0.2-0.6,0.3-1,0.3-1.3c0-0.3-0.1-0.5-0.2-0.5c-0.1-0.1-0.3,0-0.4,0.1c-0.2,0.1-0.4,0.3-0.6,0.5
			c-0.2,0.2-0.4,0.5-0.5,0.8c-0.2,0.3-0.3,0.6-0.3,0.9c0,0.1-0.1,0.3-0.1,0.5c0,0.2-0.1,0.4-0.1,0.6c0,0.2-0.1,0.4-0.1,0.5
			c0,0.1,0,0.2,0,0.2l0.1,0.3c0.6-0.3,1-0.6,1.3-1S14.1,110.2,14.2,109.5z"/>
		<path class="st6" d="M17.1,110.3c-0.1-0.1-0.1-0.2-0.1-0.3s0-0.2,0-0.4c0-0.1,0-0.3,0.1-0.6c0-0.3,0.1-0.6,0.1-1
			c0-0.3,0.1-0.7,0.1-1c0-0.3,0.1-0.5,0.1-0.6c0-0.1,0-0.2,0.1-0.3c0,0,0.1-0.1,0.2-0.1c0.1,0,0.2-0.1,0.2-0.1c0.1,0,0.2,0,0.3,0.1
			c0,0.3,0,0.7-0.1,1s-0.1,0.7-0.2,1c-0.1,0.3-0.1,0.7-0.1,1c0,0.3,0.1,0.6,0.2,0.9c0,0,0.1,0,0.2-0.1c0.1,0,0.2-0.1,0.2-0.1
			c0.1,0,0.2-0.1,0.2-0.1c0.1,0,0.1-0.1,0.2-0.1c0,0,0.1-0.1,0.2-0.2c0.1-0.1,0.2-0.2,0.3-0.3c0.1-0.1,0.2-0.2,0.3-0.3
			c0.1-0.1,0.2-0.2,0.2-0.2c0,0,0,0,0,0.1c0,0,0,0.1,0,0.1c0.1,0.2,0.1,0.3,0,0.5c-0.1,0.2-0.2,0.4-0.4,0.5s-0.4,0.3-0.5,0.4
			s-0.4,0.2-0.5,0.3c-0.1,0.1-0.3,0.1-0.4,0.1c-0.1,0-0.3,0-0.4,0c-0.1,0-0.3-0.1-0.4-0.1C17.2,110.5,17.1,110.4,17.1,110.3z
			 M17,101.3c0.1-0.1,0.2-0.1,0.3-0.1c0.1,0,0.2-0.1,0.3-0.1c0.1,0,0.2,0,0.2,0.1c0.1,0,0.1,0.1,0.2,0.2c0,0,0.1,0.1,0.1,0.2
			c0,0.1,0,0.1,0.1,0.2s0,0.1,0,0.2c0,0.1-0.1,0.1-0.1,0.1c-0.1,0.1-0.2,0.1-0.3,0c-0.1,0-0.2-0.1-0.3-0.2c-0.1-0.1-0.2-0.2-0.2-0.3
			C17.1,101.5,17.1,101.4,17,101.3z"/>
		<path class="st6" d="M20.2,108.9c-0.3-0.2-0.5-0.5-0.6-0.8s-0.2-0.6-0.2-0.9c0-0.3,0-0.6,0.1-1c0.1-0.3,0.2-0.6,0.3-0.9
			c0.1-0.3,0.3-0.5,0.5-0.7c0.2-0.2,0.4-0.3,0.5-0.4s0.3-0.1,0.5,0c0.2,0.1,0.3,0.2,0.4,0.5c0.2,0.3,0.2,0.6,0.1,1s-0.2,0.7-0.3,1
			c-0.1,0.3-0.3,0.6-0.4,0.8c-0.1,0.3-0.2,0.4-0.1,0.6c0,0.1,0.1,0.1,0.2,0.1c0.1,0,0.2,0,0.3-0.1c0.1,0,0.2-0.1,0.4-0.1
			c0.1,0,0.2-0.1,0.3-0.1c0.7-0.5,1.2-0.9,1.6-1.2c0.4-0.2,0.6-0.3,0.7-0.3c0.1,0,0.1,0.1,0,0.2c-0.1,0.2-0.2,0.4-0.5,0.6
			c-0.2,0.2-0.5,0.5-0.8,0.8s-0.7,0.5-1,0.7c-0.4,0.2-0.7,0.3-1,0.4C20.7,109.1,20.4,109.1,20.2,108.9z M20.9,105
			c-0.2,0.1-0.3,0.2-0.4,0.4c-0.1,0.2-0.2,0.3-0.2,0.5c-0.1,0.2-0.1,0.4-0.1,0.6c0,0.2,0,0.4,0,0.5c0,0,0,0,0,0l0,0
			c0.1-0.1,0.2-0.2,0.3-0.3s0.2-0.4,0.2-0.6c0.1-0.2,0.1-0.4,0.1-0.6C21,105.3,21,105.2,20.9,105z"/>
		<path class="st6" d="M25.4,101.6c-0.2,0.1-0.3,0.3-0.5,0.7c-0.1,0.3-0.2,0.7-0.3,1.1c-0.1,0.4-0.1,0.8-0.1,1.3
			c0,0.4,0.1,0.8,0.2,1.1c0.1,0.2,0.3,0.4,0.4,0.4c0.2,0,0.4,0,0.6-0.1c0.2-0.1,0.5-0.3,0.7-0.4c0.2-0.2,0.4-0.4,0.6-0.5
			c0.2-0.2,0.4-0.4,0.6-0.5c0.2-0.2,0.4-0.3,0.7-0.5c0.1,0.1,0.1,0.2,0.1,0.3c0,0.1,0,0.2,0,0.3c-0.3,0.4-0.7,0.8-1,1.2
			c-0.4,0.4-0.8,0.7-1.3,1c-0.1,0.1-0.3,0.1-0.5,0.2c-0.2,0-0.4,0-0.6,0c-0.2,0-0.4-0.1-0.5-0.2c-0.2-0.1-0.3-0.2-0.4-0.4
			c-0.2-0.4-0.3-0.7-0.4-1.1c-0.1-0.4-0.1-0.8-0.1-1.2s0.1-0.8,0.2-1.2c0.1-0.4,0.3-0.8,0.5-1.1l0,0c0.1-0.1,0.2-0.3,0.3-0.4
			c0.1-0.1,0.3-0.3,0.4-0.3c0.1-0.1,0.3-0.1,0.4-0.1c0.1,0,0.3,0.2,0.4,0.4c0,0.1,0.1,0.2,0.2,0.4c0.1,0.2,0.1,0.3,0,0.4
			c0,0.1-0.1,0.2-0.2,0.2c0,0-0.1,0.1-0.1,0.1L25.4,101.6z"/>
		<path class="st6" d="M28.6,104.7c-0.3-0.2-0.5-0.5-0.6-0.8s-0.2-0.6-0.2-0.9c0-0.3,0-0.6,0.1-1c0.1-0.3,0.2-0.6,0.3-0.9
			c0.1-0.3,0.3-0.5,0.5-0.7c0.2-0.2,0.4-0.3,0.5-0.4s0.3-0.1,0.5,0c0.2,0.1,0.3,0.2,0.4,0.5c0.2,0.3,0.2,0.6,0.1,1s-0.2,0.7-0.3,1
			c-0.1,0.3-0.3,0.6-0.4,0.8c-0.1,0.3-0.2,0.4-0.1,0.6c0,0.1,0.1,0.1,0.2,0.1c0.1,0,0.2,0,0.3-0.1s0.2-0.1,0.4-0.1
			c0.1,0,0.2-0.1,0.3-0.1c0.7-0.5,1.2-0.9,1.6-1.2c0.4-0.2,0.6-0.3,0.7-0.3c0.1,0,0.1,0.1,0,0.2c-0.1,0.2-0.2,0.4-0.5,0.6
			c-0.2,0.2-0.5,0.5-0.8,0.8s-0.7,0.5-1,0.7c-0.4,0.2-0.7,0.3-1,0.4C29.2,104.9,28.9,104.8,28.6,104.7z M29.4,100.8
			c-0.2,0.1-0.3,0.2-0.4,0.4c-0.1,0.2-0.2,0.3-0.2,0.5c-0.1,0.2-0.1,0.4-0.1,0.6c0,0.2,0,0.4,0,0.5c0,0,0,0,0,0l0,0
			c0.1-0.1,0.2-0.2,0.3-0.3c0.1-0.2,0.2-0.4,0.2-0.6c0.1-0.2,0.1-0.4,0.1-0.6C29.4,101.1,29.4,100.9,29.4,100.8z"/>
	</g>
</g>
</svg>
